<?xml version="1.0" encoding="utf-8" standalone="no"?>
<!DOCTYPE svg PUBLIC "-//W3C//DTD SVG 1.1//EN"
  "http://www.w3.org/Graphics/SVG/1.1/DTD/svg11.dtd">
<svg height="288pt" version="1.1" viewBox="0 0 432 288" width="432pt" xmlns="http://www.w3.org/2000/svg" xmlns:xlink="http://www.w3.org/1999/xlink">
 <metadata>
  <rdf:RDF xmlns:cc="http://creativecommons.org/ns#" xmlns:dc="http://purl.org/dc/elements/1.1/" xmlns:rdf="http://www.w3.org/1999/02/22-rdf-syntax-ns#">
   <cc:Work>
    <dc:type rdf:resource="http://purl.org/dc/dcmitype/StillImage"/>
    <dc:date>2021-09-18T11:37:15.551759</dc:date>
    <dc:format>image/svg+xml</dc:format>
    <dc:creator>
     <cc:Agent>
      <dc:title>Matplotlib v3.4.3, https://matplotlib.org/</dc:title>
     </cc:Agent>
    </dc:creator>
   </cc:Work>
  </rdf:RDF>
 </metadata>
 <defs>
  <style type="text/css">*{stroke-linecap:butt;stroke-linejoin:round;}</style>
 </defs>
 <g id="figure_1">
  <g id="patch_1">
   <path d="M 0 288 
L 432 288 
L 432 0 
L 0 0 
z
" style="fill:none;"/>
  </g>
  <g id="axes_1">
   <g id="LineCollection_1"/>
   <g id="LineCollection_2">
    <path clip-path="url(#pb70165b854)" d="M 112.68 251.141958 
L 129.24986 234.429091 
L 143.429091 220.04965 
L 153.054649 210.269091 
L 182.963636 179.225882 
L 188.799729 172.930909 
L 198.338182 161.909947 
L 201.719953 157.556364 
L 204.613583 153.163636 
L 206.765134 148.770909 
L 207.437505 146.574545 
L 207.803565 144.378182 
L 207.803565 142.181818 
L 207.437505 139.985455 
L 206.765134 137.789091 
L 205.823835 135.592727 
L 203.240856 131.2 
L 198.309713 124.610909 
L 193.945455 119.447973 
L 190.785424 115.825455 
L 174.178182 98.06028 
L 161.639176 85.076364 
L 154.410909 77.692378 
L 144.424196 67.505455 
L 132.447273 55.378374 
L 121.465455 44.279767 
L 112.68 35.418042 
L 112.68 35.418042 
" style="fill:none;stroke:#000000;stroke-width:1.5;"/>
    <path clip-path="url(#pb70165b854)" d="M 330.12 35.418042 
L 313.55014 52.130909 
L 299.370909 66.51035 
L 289.745351 76.290909 
L 259.836364 107.334118 
L 254.000271 113.629091 
L 244.461818 124.650053 
L 241.080047 129.003636 
L 238.186417 133.396364 
L 236.034866 137.789091 
L 235.362495 139.985455 
L 234.996435 142.181818 
L 234.996435 144.378182 
L 235.362495 146.574545 
L 236.034866 148.770909 
L 236.976165 150.967273 
L 239.559144 155.36 
L 244.490287 161.949091 
L 248.854545 167.112027 
L 252.014576 170.734545 
L 268.621818 188.49972 
L 281.160824 201.483636 
L 288.389091 208.867622 
L 298.375804 219.054545 
L 310.352727 231.181626 
L 321.334545 242.280233 
L 330.12 251.141958 
L 330.12 251.141958 
" style="fill:none;stroke:#000000;stroke-width:1.5;"/>
   </g>
   <g id="LineCollection_3"/>
   <g id="LineCollection_4"/>
   <g id="LineCollection_5">
    <path clip-path="url(#pb70165b854)" d="M 329.261958 252 
L 312.549091 235.43014 
L 298.16965 221.250909 
L 288.389091 211.625351 
L 257.345882 181.716364 
L 251.050909 175.880271 
L 240.029947 166.341818 
L 235.676364 162.960047 
L 231.283636 160.066417 
L 226.890909 157.914866 
L 224.694545 157.242495 
L 222.498182 156.876435 
L 220.301818 156.876435 
L 218.105455 157.242495 
L 215.909091 157.914866 
L 213.712727 158.856165 
L 209.32 161.439144 
L 202.730909 166.370287 
L 197.567973 170.734545 
L 193.945455 173.894576 
L 176.18028 190.501818 
L 163.196364 203.040824 
L 155.812378 210.269091 
L 145.625455 220.255804 
L 133.498374 232.232727 
L 122.399767 243.214545 
L 113.538042 252 
L 113.538042 252 
" style="fill:none;stroke:#000000;stroke-width:1.5;"/>
    <path clip-path="url(#pb70165b854)" d="M 113.538042 34.56 
L 130.250909 51.12986 
L 144.63035 65.309091 
L 154.410909 74.934649 
L 185.454118 104.843636 
L 191.749091 110.679729 
L 202.770053 120.218182 
L 207.123636 123.599953 
L 211.516364 126.493583 
L 215.909091 128.645134 
L 218.105455 129.317505 
L 220.301818 129.683565 
L 222.498182 129.683565 
L 224.694545 129.317505 
L 226.890909 128.645134 
L 229.087273 127.703835 
L 233.48 125.120856 
L 240.069091 120.189713 
L 245.232027 115.825455 
L 248.854545 112.665424 
L 266.61972 96.058182 
L 279.603636 83.519176 
L 286.987622 76.290909 
L 297.174545 66.304196 
L 309.301626 54.327273 
L 320.400233 43.345455 
L 329.261958 34.56 
L 329.261958 34.56 
" style="fill:none;stroke:#000000;stroke-width:1.5;"/>
   </g>
   <g id="LineCollection_6"/>
   <g id="LineCollection_7"/>
   <g id="LineCollection_8">
    <path clip-path="url(#pb70165b854)" d="M 112.68 250.623319 
L 124.32506 238.821818 
L 162.81296 199.287273 
L 167.589091 194.253474 
L 175.254065 186.109091 
L 187.356364 172.641462 
L 190.852786 168.538182 
L 196.141818 161.753284 
L 199.060082 157.556364 
L 201.580697 153.163636 
L 202.730909 150.445122 
L 203.358739 148.770909 
L 203.90783 146.574545 
L 204.182375 144.378182 
L 204.182375 142.181818 
L 203.90783 139.985455 
L 203.358739 137.789091 
L 202.556859 135.592727 
L 201.580697 133.396364 
L 199.060082 129.003636 
L 194.364008 122.414545 
L 191.749091 119.16257 
L 189.009024 115.825455 
L 181.290349 107.04 
L 176.374545 101.689335 
L 171.149759 96.058182 
L 143.429091 67.236444 
L 124.32506 47.738182 
L 112.68 35.936681 
L 112.68 35.936681 
" style="fill:none;stroke:#100010;stroke-width:1.5;"/>
    <path clip-path="url(#pb70165b854)" d="M 330.12 35.936681 
L 318.47494 47.738182 
L 279.98704 87.272727 
L 275.210909 92.306526 
L 267.545935 100.450909 
L 255.443636 113.918538 
L 251.947214 118.021818 
L 246.658182 124.806716 
L 243.739918 129.003636 
L 241.219303 133.396364 
L 240.069091 136.114878 
L 239.441261 137.789091 
L 238.89217 139.985455 
L 238.617625 142.181818 
L 238.617625 144.378182 
L 238.89217 146.574545 
L 239.441261 148.770909 
L 240.243141 150.967273 
L 241.219303 153.163636 
L 243.739918 157.556364 
L 248.435992 164.145455 
L 251.050909 167.39743 
L 253.790976 170.734545 
L 261.509651 179.52 
L 266.425455 184.870665 
L 271.650241 190.501818 
L 299.370909 219.323556 
L 318.47494 238.821818 
L 330.12 250.623319 
L 330.12 250.623319 
" style="fill:none;stroke:#100010;stroke-width:1.5;"/>
   </g>
   <g id="LineCollection_9"/>
   <g id="LineCollection_10"/>
   <g id="LineCollection_11">
    <path clip-path="url(#pb70165b854)" d="M 328.743319 252 
L 316.941818 240.35494 
L 277.407273 201.86704 
L 272.373474 197.090909 
L 264.229091 189.425935 
L 250.761462 177.323636 
L 246.658182 173.827214 
L 239.873284 168.538182 
L 235.676364 165.619918 
L 231.283636 163.099303 
L 228.565122 161.949091 
L 226.890909 161.321261 
L 224.694545 160.77217 
L 222.498182 160.497625 
L 220.301818 160.497625 
L 218.105455 160.77217 
L 215.909091 161.321261 
L 213.712727 162.123141 
L 211.516364 163.099303 
L 207.123636 165.619918 
L 200.534545 170.315992 
L 197.28257 172.930909 
L 193.945455 175.670976 
L 185.16 183.389651 
L 179.809335 188.305455 
L 174.178182 193.530241 
L 145.356444 221.250909 
L 125.858182 240.35494 
L 114.056681 252 
L 114.056681 252 
" style="fill:none;stroke:#001010;stroke-width:1.5;"/>
    <path clip-path="url(#pb70165b854)" d="M 114.056681 34.56 
L 125.858182 46.20506 
L 165.392727 84.69296 
L 170.426526 89.469091 
L 178.570909 97.134065 
L 192.038538 109.236364 
L 196.141818 112.732786 
L 202.926716 118.021818 
L 207.123636 120.940082 
L 211.516364 123.460697 
L 214.234878 124.610909 
L 215.909091 125.238739 
L 218.105455 125.78783 
L 220.301818 126.062375 
L 222.498182 126.062375 
L 224.694545 125.78783 
L 226.890909 125.238739 
L 229.087273 124.436859 
L 231.283636 123.460697 
L 235.676364 120.940082 
L 242.265455 116.244008 
L 245.51743 113.629091 
L 248.854545 110.889024 
L 257.64 103.170349 
L 262.990665 98.254545 
L 268.621818 93.029759 
L 297.443556 65.309091 
L 316.941818 46.20506 
L 328.743319 34.56 
L 328.743319 34.56 
" style="fill:none;stroke:#001010;stroke-width:1.5;"/>
   </g>
   <g id="LineCollection_12"/>
   <g id="LineCollection_13"/>
   <g id="LineCollection_14">
    <path clip-path="url(#pb70165b854)" d="M 112.68 249.982648 
L 119.316536 243.214545 
L 143.429091 218.408147 
L 153.347704 208.072727 
L 174.178182 185.645967 
L 179.61056 179.52 
L 187.356364 170.184296 
L 190.33615 166.341818 
L 193.945455 161.123717 
L 194.859448 159.752727 
L 197.338571 155.36 
L 199.215337 150.967273 
L 199.874246 148.770909 
L 200.313519 146.574545 
L 200.533156 144.378182 
L 200.533156 142.181818 
L 200.313519 139.985455 
L 199.874246 137.789091 
L 199.215337 135.592727 
L 198.336918 133.396364 
L 197.338571 131.2 
L 194.859448 126.807273 
L 190.33615 120.218182 
L 182.963636 110.994381 
L 178.570909 105.878037 
L 175.746351 102.647273 
L 163.702682 89.469091 
L 156.607273 81.939198 
L 149.152526 74.094545 
L 112.68 36.577352 
L 112.68 36.577352 
" style="fill:none;stroke:#200020;stroke-width:1.5;"/>
    <path clip-path="url(#pb70165b854)" d="M 330.12 36.577352 
L 323.483464 43.345455 
L 299.370909 68.151853 
L 289.452296 78.487273 
L 268.621818 100.914033 
L 263.18944 107.04 
L 255.443636 116.375704 
L 252.46385 120.218182 
L 248.854545 125.436283 
L 247.940552 126.807273 
L 245.461429 131.2 
L 243.584663 135.592727 
L 242.925754 137.789091 
L 242.486481 139.985455 
L 242.266844 142.181818 
L 242.266844 144.378182 
L 242.486481 146.574545 
L 242.925754 148.770909 
L 243.584663 150.967273 
L 244.463082 153.163636 
L 245.461429 155.36 
L 247.940552 159.752727 
L 252.46385 166.341818 
L 259.836364 175.565619 
L 264.229091 180.681963 
L 267.053649 183.912727 
L 279.097318 197.090909 
L 286.192727 204.620802 
L 293.647474 212.465455 
L 330.12 249.982648 
L 330.12 249.982648 
" style="fill:none;stroke:#200020;stroke-width:1.5;"/>
   </g>
   <g id="LineCollection_15"/>
   <g id="LineCollection_16"/>
   <g id="LineCollection_17">
    <path clip-path="url(#pb70165b854)" d="M 328.102648 252 
L 321.334545 245.363464 
L 296.528147 221.250909 
L 286.192727 211.332296 
L 263.765967 190.501818 
L 257.64 185.06944 
L 248.304296 177.323636 
L 244.461818 174.34385 
L 239.243717 170.734545 
L 237.872727 169.820552 
L 233.48 167.341429 
L 229.087273 165.464663 
L 226.890909 164.805754 
L 224.694545 164.366481 
L 222.498182 164.146844 
L 220.301818 164.146844 
L 218.105455 164.366481 
L 215.909091 164.805754 
L 213.712727 165.464663 
L 211.516364 166.343082 
L 209.32 167.341429 
L 204.927273 169.820552 
L 198.338182 174.34385 
L 189.114381 181.716364 
L 183.998037 186.109091 
L 180.767273 188.933649 
L 167.589091 200.977318 
L 160.059198 208.072727 
L 152.214545 215.527474 
L 114.697352 252 
L 114.697352 252 
" style="fill:none;stroke:#002020;stroke-width:1.5;"/>
    <path clip-path="url(#pb70165b854)" d="M 114.697352 34.56 
L 121.465455 41.196536 
L 146.271853 65.309091 
L 156.607273 75.227704 
L 179.034033 96.058182 
L 185.16 101.49056 
L 194.495704 109.236364 
L 198.338182 112.21615 
L 203.556283 115.825455 
L 204.927273 116.739448 
L 209.32 119.218571 
L 213.712727 121.095337 
L 215.909091 121.754246 
L 218.105455 122.193519 
L 220.301818 122.413156 
L 222.498182 122.413156 
L 224.694545 122.193519 
L 226.890909 121.754246 
L 229.087273 121.095337 
L 231.283636 120.216918 
L 233.48 119.218571 
L 237.872727 116.739448 
L 244.461818 112.21615 
L 253.685619 104.843636 
L 258.801963 100.450909 
L 262.032727 97.626351 
L 275.210909 85.582682 
L 282.740802 78.487273 
L 290.585455 71.032526 
L 328.102648 34.56 
L 328.102648 34.56 
" style="fill:none;stroke:#002020;stroke-width:1.5;"/>
   </g>
   <g id="LineCollection_18"/>
   <g id="LineCollection_19"/>
   <g id="LineCollection_20">
    <path clip-path="url(#pb70165b854)" d="M 112.68 249.207783 
L 128.054545 233.356518 
L 137.590119 223.447273 
L 158.271817 201.483636 
L 175.849306 181.716364 
L 184.640372 170.734545 
L 189.552727 163.652016 
L 190.647465 161.949091 
L 193.09699 157.556364 
L 195.039618 153.163636 
L 195.771739 150.967273 
L 196.337104 148.770909 
L 196.736443 146.574545 
L 196.936113 144.378182 
L 196.936113 142.181818 
L 196.736443 139.985455 
L 196.141818 137.073042 
L 195.771739 135.592727 
L 195.039618 133.396364 
L 193.09699 129.003636 
L 190.647465 124.610909 
L 187.356364 119.623557 
L 184.640372 115.825455 
L 179.493156 109.236364 
L 169.785455 97.838487 
L 164.292691 91.665455 
L 145.625455 71.566861 
L 133.379522 58.72 
L 112.68 37.352217 
L 112.68 37.352217 
" style="fill:none;stroke:#300030;stroke-width:1.5;"/>
    <path clip-path="url(#pb70165b854)" d="M 330.12 37.352217 
L 314.745455 53.203482 
L 305.209881 63.112727 
L 284.528183 85.076364 
L 266.950694 104.843636 
L 258.159628 115.825455 
L 253.247273 122.907984 
L 252.152535 124.610909 
L 249.70301 129.003636 
L 247.760382 133.396364 
L 247.028261 135.592727 
L 246.462896 137.789091 
L 246.063557 139.985455 
L 245.863888 142.181818 
L 245.863888 144.378182 
L 246.063557 146.574545 
L 246.658182 149.486958 
L 247.028261 150.967273 
L 247.760382 153.163636 
L 249.70301 157.556364 
L 252.152535 161.949091 
L 255.443636 166.936443 
L 258.159628 170.734545 
L 263.306844 177.323636 
L 273.014545 188.721513 
L 278.507309 194.894545 
L 297.174545 214.993139 
L 309.420478 227.84 
L 330.12 249.207783 
L 330.12 249.207783 
" style="fill:none;stroke:#300030;stroke-width:1.5;"/>
   </g>
   <g id="LineCollection_21"/>
   <g id="LineCollection_22"/>
   <g id="LineCollection_23">
    <path clip-path="url(#pb70165b854)" d="M 327.327783 252 
L 311.476518 236.625455 
L 301.567273 227.089881 
L 279.603636 206.408183 
L 259.836364 188.830694 
L 248.854545 180.039628 
L 241.772016 175.127273 
L 240.069091 174.032535 
L 235.676364 171.58301 
L 231.283636 169.640382 
L 229.087273 168.908261 
L 226.890909 168.342896 
L 224.694545 167.943557 
L 222.498182 167.743887 
L 220.301818 167.743887 
L 218.105455 167.943557 
L 215.193042 168.538182 
L 213.712727 168.908261 
L 211.516364 169.640382 
L 207.123636 171.58301 
L 202.730909 174.032535 
L 197.743557 177.323636 
L 193.945455 180.039628 
L 187.356364 185.186844 
L 175.958487 194.894545 
L 169.785455 200.387309 
L 149.686861 219.054545 
L 136.84 231.300478 
L 115.472217 252 
L 115.472217 252 
" style="fill:none;stroke:#003030;stroke-width:1.5;"/>
    <path clip-path="url(#pb70165b854)" d="M 115.472217 34.56 
L 131.323482 49.934545 
L 141.232727 59.470119 
L 163.196364 80.151817 
L 182.963636 97.729306 
L 193.945455 106.520372 
L 201.027984 111.432727 
L 202.730909 112.527465 
L 207.123636 114.97699 
L 211.516364 116.919618 
L 213.712727 117.651739 
L 215.909091 118.217104 
L 218.105455 118.616443 
L 220.301818 118.816113 
L 222.498182 118.816113 
L 224.694545 118.616443 
L 227.606958 118.021818 
L 229.087273 117.651739 
L 231.283636 116.919618 
L 235.676364 114.97699 
L 240.069091 112.527465 
L 245.056443 109.236364 
L 248.854545 106.520372 
L 255.443636 101.373156 
L 266.841513 91.665455 
L 273.014545 86.172691 
L 293.113139 67.505455 
L 305.96 55.259522 
L 327.327783 34.56 
L 327.327783 34.56 
" style="fill:none;stroke:#003030;stroke-width:1.5;"/>
   </g>
   <g id="LineCollection_24"/>
   <g id="LineCollection_25"/>
   <g id="LineCollection_26">
    <path clip-path="url(#pb70165b854)" d="M 112.68 248.304615 
L 121.818821 238.821818 
L 141.232727 218.359456 
L 150.018182 208.895626 
L 154.794535 203.68 
L 164.56824 192.698182 
L 174.178182 181.23057 
L 177.279439 177.323636 
L 182.13877 170.734545 
L 186.428389 164.145455 
L 188.855736 159.752727 
L 190.845432 155.36 
L 192.296479 150.967273 
L 192.803332 148.770909 
L 193.141234 146.574545 
L 193.310185 144.378182 
L 193.310185 142.181818 
L 193.141234 139.985455 
L 192.803332 137.789091 
L 192.296479 135.592727 
L 190.845432 131.2 
L 188.855736 126.807273 
L 186.428389 122.414545 
L 182.963636 117.062754 
L 180.563811 113.629091 
L 176.374545 108.105247 
L 173.802796 104.843636 
L 167.589091 97.392742 
L 162.646453 91.665455 
L 150.789649 78.487273 
L 121.818821 47.738182 
L 112.68 38.255385 
L 112.68 38.255385 
" style="fill:none;stroke:#400040;stroke-width:1.5;"/>
    <path clip-path="url(#pb70165b854)" d="M 330.12 38.255385 
L 320.981179 47.738182 
L 301.567273 68.200544 
L 292.781818 77.664374 
L 288.005465 82.88 
L 278.23176 93.861818 
L 268.621818 105.32943 
L 265.520561 109.236364 
L 260.66123 115.825455 
L 256.371611 122.414545 
L 253.944264 126.807273 
L 251.954568 131.2 
L 250.503521 135.592727 
L 249.996668 137.789091 
L 249.658766 139.985455 
L 249.489815 142.181818 
L 249.489815 144.378182 
L 249.658766 146.574545 
L 249.996668 148.770909 
L 250.503521 150.967273 
L 251.954568 155.36 
L 253.944264 159.752727 
L 256.371611 164.145455 
L 259.836364 169.497246 
L 262.236189 172.930909 
L 266.425455 178.454753 
L 268.997204 181.716364 
L 275.210909 189.167258 
L 280.153547 194.894545 
L 292.010351 208.072727 
L 320.981179 238.821818 
L 330.12 248.304615 
L 330.12 248.304615 
" style="fill:none;stroke:#400040;stroke-width:1.5;"/>
   </g>
   <g id="LineCollection_27"/>
   <g id="LineCollection_28"/>
   <g id="LineCollection_29">
    <path clip-path="url(#pb70165b854)" d="M 326.424615 252 
L 316.941818 242.861179 
L 296.479456 223.447273 
L 287.015626 214.661818 
L 281.8 209.885465 
L 270.818182 200.11176 
L 259.35057 190.501818 
L 255.443636 187.400561 
L 248.854545 182.54123 
L 242.265455 178.251611 
L 237.872727 175.824264 
L 233.48 173.834568 
L 229.087273 172.383521 
L 226.890909 171.876668 
L 224.694545 171.538766 
L 222.498182 171.369815 
L 220.301818 171.369815 
L 218.105455 171.538766 
L 215.909091 171.876668 
L 213.712727 172.383521 
L 209.32 173.834568 
L 204.927273 175.824264 
L 200.534545 178.251611 
L 195.182754 181.716364 
L 191.749091 184.116189 
L 186.225247 188.305455 
L 182.963636 190.877204 
L 175.512742 197.090909 
L 169.785455 202.033547 
L 156.607273 213.890351 
L 125.858182 242.861179 
L 116.375385 252 
L 116.375385 252 
" style="fill:none;stroke:#004040;stroke-width:1.5;"/>
    <path clip-path="url(#pb70165b854)" d="M 116.375385 34.56 
L 125.858182 43.698821 
L 146.320544 63.112727 
L 155.784374 71.898182 
L 161 76.674535 
L 171.981818 86.44824 
L 183.44943 96.058182 
L 187.356364 99.159439 
L 193.945455 104.01877 
L 200.534545 108.308389 
L 204.927273 110.735736 
L 209.32 112.725432 
L 213.712727 114.176479 
L 215.909091 114.683332 
L 218.105455 115.021234 
L 220.301818 115.190185 
L 222.498182 115.190185 
L 224.694545 115.021234 
L 226.890909 114.683332 
L 229.087273 114.176479 
L 233.48 112.725432 
L 237.872727 110.735736 
L 242.265455 108.308389 
L 247.617246 104.843636 
L 251.050909 102.443811 
L 256.574753 98.254545 
L 259.836364 95.682796 
L 267.287258 89.469091 
L 273.014545 84.526453 
L 286.192727 72.669649 
L 316.941818 43.698821 
L 326.424615 34.56 
L 326.424615 34.56 
" style="fill:none;stroke:#004040;stroke-width:1.5;"/>
   </g>
   <g id="LineCollection_30"/>
   <g id="LineCollection_31"/>
   <g id="LineCollection_32">
    <path clip-path="url(#pb70165b854)" d="M 112.68 247.269841 
L 126.97063 232.232727 
L 147.821818 209.667236 
L 155.126872 201.483636 
L 164.529328 190.501818 
L 173.257636 179.52 
L 178.570909 172.048866 
L 180.862363 168.538182 
L 183.451913 164.145455 
L 185.678794 159.752727 
L 187.356364 155.64527 
L 187.470472 155.36 
L 188.202593 153.163636 
L 188.78829 150.967273 
L 189.227563 148.770909 
L 189.552727 146.089801 
L 189.674986 144.378182 
L 189.674986 142.181818 
L 189.520411 139.985455 
L 189.227563 137.789091 
L 188.78829 135.592727 
L 188.202593 133.396364 
L 186.639703 129.003636 
L 184.614694 124.610909 
L 182.204585 120.218182 
L 179.470181 115.825455 
L 174.88722 109.236364 
L 167.589091 99.816237 
L 162.690329 93.861818 
L 153.190815 82.88 
L 135.194377 63.112727 
L 112.68 39.290159 
L 112.68 39.290159 
" style="fill:none;stroke:#500050;stroke-width:1.5;"/>
    <path clip-path="url(#pb70165b854)" d="M 330.12 39.290159 
L 315.82937 54.327273 
L 294.978182 76.892764 
L 287.673128 85.076364 
L 278.270672 96.058182 
L 269.542364 107.04 
L 264.229091 114.511134 
L 261.937637 118.021818 
L 259.348087 122.414545 
L 257.121206 126.807273 
L 255.443636 130.91473 
L 255.329528 131.2 
L 254.597407 133.396364 
L 254.01171 135.592727 
L 253.572438 137.789091 
L 253.247273 140.470199 
L 253.125014 142.181818 
L 253.125014 144.378182 
L 253.279589 146.574545 
L 253.572438 148.770909 
L 254.01171 150.967273 
L 254.597407 153.163636 
L 256.160297 157.556364 
L 258.185306 161.949091 
L 260.595415 166.341818 
L 263.329819 170.734545 
L 267.91278 177.323636 
L 275.210909 186.743763 
L 280.109671 192.698182 
L 289.609185 203.68 
L 307.605623 223.447273 
L 330.12 247.269841 
L 330.12 247.269841 
" style="fill:none;stroke:#500050;stroke-width:1.5;"/>
   </g>
   <g id="LineCollection_33"/>
   <g id="LineCollection_34"/>
   <g id="LineCollection_35">
    <path clip-path="url(#pb70165b854)" d="M 325.389841 252 
L 310.352727 237.70937 
L 287.787236 216.858182 
L 279.603636 209.553128 
L 268.621818 200.150672 
L 257.64 191.422364 
L 250.168866 186.109091 
L 246.658182 183.817637 
L 242.265455 181.228087 
L 237.872727 179.001206 
L 233.76527 177.323636 
L 233.48 177.209528 
L 231.283636 176.477407 
L 229.087273 175.89171 
L 226.890909 175.452438 
L 224.209801 175.127273 
L 222.498182 175.005014 
L 220.301818 175.005014 
L 218.105455 175.159589 
L 215.909091 175.452438 
L 213.712727 175.89171 
L 211.516364 176.477407 
L 207.123636 178.040297 
L 202.730909 180.065306 
L 198.338182 182.475415 
L 193.945455 185.209819 
L 187.356364 189.79278 
L 177.936237 197.090909 
L 171.981818 201.989671 
L 161 211.489185 
L 141.232727 229.485623 
L 117.410159 252 
L 117.410159 252 
" style="fill:none;stroke:#005050;stroke-width:1.5;"/>
    <path clip-path="url(#pb70165b854)" d="M 117.410159 34.56 
L 132.447273 48.85063 
L 155.012764 69.701818 
L 163.196364 77.006872 
L 174.178182 86.409328 
L 185.16 95.137636 
L 192.631134 100.450909 
L 196.141818 102.742363 
L 200.534545 105.331913 
L 204.927273 107.558794 
L 209.03473 109.236364 
L 209.32 109.350472 
L 211.516364 110.082593 
L 213.712727 110.66829 
L 215.909091 111.107563 
L 218.590199 111.432727 
L 220.301818 111.554986 
L 222.498182 111.554986 
L 224.694545 111.400411 
L 226.890909 111.107563 
L 229.087273 110.66829 
L 231.283636 110.082593 
L 235.676364 108.519703 
L 240.069091 106.494694 
L 244.461818 104.084585 
L 248.854545 101.350181 
L 255.443636 96.76722 
L 264.863763 89.469091 
L 270.818182 84.570329 
L 281.8 75.070815 
L 301.567273 57.074377 
L 325.389841 34.56 
L 325.389841 34.56 
" style="fill:none;stroke:#005050;stroke-width:1.5;"/>
   </g>
   <g id="LineCollection_36"/>
   <g id="LineCollection_37"/>
   <g id="LineCollection_38">
    <path clip-path="url(#pb70165b854)" d="M 112.68 246.093005 
L 119.536292 238.821818 
L 134.643636 222.507484 
L 141.757181 214.661818 
L 152.214545 202.752335 
L 157.031108 197.090909 
L 164.175956 188.305455 
L 170.797326 179.52 
L 175.286422 172.930909 
L 178.570909 167.459203 
L 180.373797 164.145455 
L 182.42628 159.752727 
L 184.074243 155.36 
L 185.16 151.294625 
L 185.241838 150.967273 
L 185.653656 148.770909 
L 185.928202 146.574545 
L 186.065475 144.378182 
L 186.065475 142.181818 
L 185.928202 139.985455 
L 185.653656 137.789091 
L 184.720233 133.396364 
L 184.074243 131.2 
L 182.42628 126.807273 
L 180.373797 122.414545 
L 177.977471 118.021818 
L 175.286422 113.629091 
L 170.797326 107.04 
L 164.175956 98.254545 
L 155.186677 87.272727 
L 141.232727 71.326051 
L 133.797826 63.112727 
L 113.334255 41.149091 
L 112.68 40.466995 
L 112.68 40.466995 
" style="fill:none;stroke:#600060;stroke-width:1.5;"/>
    <path clip-path="url(#pb70165b854)" d="M 330.12 40.466995 
L 323.263708 47.738182 
L 308.156364 64.052516 
L 301.042819 71.898182 
L 290.585455 83.807665 
L 285.768892 89.469091 
L 278.624044 98.254545 
L 272.002674 107.04 
L 267.513578 113.629091 
L 264.229091 119.100797 
L 262.426203 122.414545 
L 260.37372 126.807273 
L 258.725757 131.2 
L 257.64 135.265375 
L 257.558162 135.592727 
L 257.146344 137.789091 
L 256.871798 139.985455 
L 256.734525 142.181818 
L 256.734525 144.378182 
L 256.871798 146.574545 
L 257.146344 148.770909 
L 258.079767 153.163636 
L 258.725757 155.36 
L 260.37372 159.752727 
L 262.426203 164.145455 
L 264.822529 168.538182 
L 267.513578 172.930909 
L 272.002674 179.52 
L 278.624044 188.305455 
L 287.613323 199.287273 
L 301.567273 215.233949 
L 309.002174 223.447273 
L 329.465745 245.410909 
L 330.12 246.093005 
L 330.12 246.093005 
" style="fill:none;stroke:#600060;stroke-width:1.5;"/>
   </g>
   <g id="LineCollection_39"/>
   <g id="LineCollection_40"/>
   <g id="LineCollection_41">
    <path clip-path="url(#pb70165b854)" d="M 324.213005 252 
L 316.941818 245.143708 
L 300.627484 230.036364 
L 292.781818 222.922819 
L 280.872335 212.465455 
L 275.210909 207.648892 
L 266.425455 200.504044 
L 257.64 193.882674 
L 251.050909 189.393578 
L 245.579203 186.109091 
L 242.265455 184.306203 
L 237.872727 182.25372 
L 233.48 180.605757 
L 229.414625 179.52 
L 229.087273 179.438162 
L 226.890909 179.026344 
L 224.694545 178.751798 
L 222.498182 178.614525 
L 220.301818 178.614525 
L 218.105455 178.751798 
L 215.909091 179.026344 
L 211.516364 179.959767 
L 209.32 180.605757 
L 204.927273 182.25372 
L 200.534545 184.306203 
L 196.141818 186.702529 
L 191.749091 189.393578 
L 185.16 193.882674 
L 176.374545 200.504044 
L 165.392727 209.493323 
L 149.446051 223.447273 
L 141.232727 230.882174 
L 119.269091 251.345745 
L 118.586995 252 
L 118.586995 252 
" style="fill:none;stroke:#006060;stroke-width:1.5;"/>
    <path clip-path="url(#pb70165b854)" d="M 118.586995 34.56 
L 125.858182 41.416292 
L 142.172516 56.523636 
L 150.018182 63.637181 
L 161.927665 74.094545 
L 167.589091 78.911108 
L 176.374545 86.055956 
L 185.16 92.677326 
L 191.749091 97.166422 
L 197.220797 100.450909 
L 200.534545 102.253797 
L 204.927273 104.30628 
L 209.32 105.954243 
L 213.385375 107.04 
L 213.712727 107.121838 
L 215.909091 107.533656 
L 218.105455 107.808202 
L 220.301818 107.945475 
L 222.498182 107.945475 
L 224.694545 107.808202 
L 226.890909 107.533656 
L 231.283636 106.600233 
L 233.48 105.954243 
L 237.872727 104.30628 
L 242.265455 102.253797 
L 246.658182 99.857471 
L 251.050909 97.166422 
L 257.64 92.677326 
L 266.425455 86.055956 
L 277.407273 77.066677 
L 293.353949 63.112727 
L 301.567273 55.677826 
L 323.530909 35.214255 
L 324.213005 34.56 
L 324.213005 34.56 
" style="fill:none;stroke:#006060;stroke-width:1.5;"/>
   </g>
   <g id="LineCollection_42"/>
   <g id="LineCollection_43"/>
   <g id="LineCollection_44">
    <path clip-path="url(#pb70165b854)" d="M 112.68 244.775422 
L 122.280088 234.429091 
L 138.151492 216.858182 
L 151.369669 201.483636 
L 160.19131 190.501818 
L 166.683359 181.716364 
L 171.092821 175.127273 
L 174.982526 168.538182 
L 177.219107 164.145455 
L 179.113127 159.752727 
L 180.615902 155.36 
L 181.705675 150.967273 
L 182.071735 148.770909 
L 182.315776 146.574545 
L 182.437796 144.378182 
L 182.437796 142.181818 
L 182.315776 139.985455 
L 182.071735 137.789091 
L 181.705675 135.592727 
L 180.615902 131.2 
L 179.113127 126.807273 
L 177.219107 122.414545 
L 174.982526 118.021818 
L 171.092821 111.432727 
L 166.683359 104.843636 
L 161 97.136435 
L 158.477253 93.861818 
L 151.369669 85.076364 
L 141.232727 73.223512 
L 134.242281 65.309091 
L 120.257003 49.934545 
L 112.68 41.784578 
L 112.68 41.784578 
" style="fill:none;stroke:#700070;stroke-width:1.5;"/>
    <path clip-path="url(#pb70165b854)" d="M 330.12 41.784578 
L 320.519912 52.130909 
L 304.648508 69.701818 
L 291.430331 85.076364 
L 282.60869 96.058182 
L 276.116641 104.843636 
L 271.707179 111.432727 
L 267.817474 118.021818 
L 265.580893 122.414545 
L 263.686873 126.807273 
L 262.184098 131.2 
L 261.094325 135.592727 
L 260.728265 137.789091 
L 260.484224 139.985455 
L 260.362204 142.181818 
L 260.362204 144.378182 
L 260.484224 146.574545 
L 260.728265 148.770909 
L 261.094325 150.967273 
L 262.184098 155.36 
L 263.686873 159.752727 
L 265.580893 164.145455 
L 267.817474 168.538182 
L 271.707179 175.127273 
L 276.116641 181.716364 
L 281.8 189.423565 
L 284.322747 192.698182 
L 291.430331 201.483636 
L 301.567273 213.336488 
L 308.557719 221.250909 
L 322.542997 236.625455 
L 330.12 244.775422 
L 330.12 244.775422 
" style="fill:none;stroke:#700070;stroke-width:1.5;"/>
   </g>
   <g id="LineCollection_45"/>
   <g id="LineCollection_46"/>
   <g id="LineCollection_47">
    <path clip-path="url(#pb70165b854)" d="M 322.895422 252 
L 312.549091 242.399912 
L 294.978182 226.528508 
L 279.603636 213.310331 
L 268.621818 204.48869 
L 259.836364 197.996641 
L 253.247273 193.587179 
L 246.658182 189.697474 
L 242.265455 187.460893 
L 237.872727 185.566873 
L 233.48 184.064098 
L 229.087273 182.974325 
L 226.890909 182.608265 
L 224.694545 182.364224 
L 222.498182 182.242204 
L 220.301818 182.242204 
L 218.105455 182.364224 
L 215.909091 182.608265 
L 213.712727 182.974325 
L 209.32 184.064098 
L 204.927273 185.566873 
L 200.534545 187.460893 
L 196.141818 189.697474 
L 189.552727 193.587179 
L 182.963636 197.996641 
L 175.256435 203.68 
L 171.981818 206.202747 
L 163.196364 213.310331 
L 151.343512 223.447273 
L 143.429091 230.437719 
L 128.054545 244.422997 
L 119.904578 252 
L 119.904578 252 
" style="fill:none;stroke:#007070;stroke-width:1.5;"/>
    <path clip-path="url(#pb70165b854)" d="M 119.904578 34.56 
L 130.250909 44.160088 
L 147.821818 60.031492 
L 163.196364 73.249669 
L 174.178182 82.07131 
L 182.963636 88.563359 
L 189.552727 92.972821 
L 196.141818 96.862526 
L 200.534545 99.099107 
L 204.927273 100.993127 
L 209.32 102.495902 
L 213.712727 103.585675 
L 215.909091 103.951735 
L 218.105455 104.195776 
L 220.301818 104.317796 
L 222.498182 104.317796 
L 224.694545 104.195776 
L 226.890909 103.951735 
L 229.087273 103.585675 
L 233.48 102.495902 
L 237.872727 100.993127 
L 242.265455 99.099107 
L 246.658182 96.862526 
L 253.247273 92.972821 
L 259.836364 88.563359 
L 267.543565 82.88 
L 270.818182 80.357253 
L 279.603636 73.249669 
L 291.456488 63.112727 
L 299.370909 56.122281 
L 314.745455 42.137003 
L 322.895422 34.56 
L 322.895422 34.56 
" style="fill:none;stroke:#007070;stroke-width:1.5;"/>
   </g>
   <g id="LineCollection_48"/>
   <g id="LineCollection_49"/>
   <g id="LineCollection_50">
    <path clip-path="url(#pb70165b854)" d="M 112.68 243.31302 
L 117.072727 238.518537 
L 126.7297 227.84 
L 139.036364 213.77383 
L 143.872281 208.072727 
L 151.052012 199.287273 
L 157.823787 190.501818 
L 163.196364 182.944182 
L 165.486066 179.52 
L 168.23541 175.127273 
L 170.746356 170.734545 
L 172.986397 166.341818 
L 174.916832 161.949091 
L 176.491219 157.556364 
L 177.699219 153.163636 
L 178.467946 148.770909 
L 178.809321 144.378182 
L 178.809321 142.181818 
L 178.467946 137.789091 
L 177.699219 133.396364 
L 176.491219 129.003636 
L 174.916832 124.610909 
L 172.986397 120.218182 
L 170.746356 115.825455 
L 167.589091 110.398617 
L 165.392727 106.902737 
L 162.550667 102.647273 
L 157.823787 96.058182 
L 151.052012 87.272727 
L 142.029667 76.290909 
L 128.054545 60.219167 
L 120.799977 52.130909 
L 112.68 43.24698 
L 112.68 43.24698 
" style="fill:none;stroke:#800080;stroke-width:1.5;"/>
    <path clip-path="url(#pb70165b854)" d="M 330.12 43.24698 
L 325.727273 48.041463 
L 316.0703 58.72 
L 303.763636 72.78617 
L 298.927719 78.487273 
L 291.747988 87.272727 
L 284.976213 96.058182 
L 279.603636 103.615818 
L 277.313934 107.04 
L 274.56459 111.432727 
L 272.053644 115.825455 
L 269.813603 120.218182 
L 267.883168 124.610909 
L 266.308781 129.003636 
L 265.100781 133.396364 
L 264.332054 137.789091 
L 263.990679 142.181818 
L 263.990679 144.378182 
L 264.332054 148.770909 
L 265.100781 153.163636 
L 266.308781 157.556364 
L 267.883168 161.949091 
L 269.813603 166.341818 
L 272.053644 170.734545 
L 275.210909 176.161383 
L 277.407273 179.657263 
L 280.249333 183.912727 
L 284.976213 190.501818 
L 291.747988 199.287273 
L 300.770333 210.269091 
L 314.745455 226.340833 
L 322.000023 234.429091 
L 330.12 243.31302 
L 330.12 243.31302 
" style="fill:none;stroke:#800080;stroke-width:1.5;"/>
   </g>
   <g id="LineCollection_51"/>
   <g id="LineCollection_52"/>
   <g id="LineCollection_53">
    <path clip-path="url(#pb70165b854)" d="M 321.43302 252 
L 316.638537 247.607273 
L 305.96 237.9503 
L 291.89383 225.643636 
L 286.192727 220.807719 
L 277.407273 213.627988 
L 268.621818 206.856213 
L 261.064182 201.483636 
L 257.64 199.193934 
L 253.247273 196.44459 
L 248.854545 193.933644 
L 244.461818 191.693603 
L 240.069091 189.763168 
L 235.676364 188.188781 
L 231.283636 186.980781 
L 226.890909 186.212054 
L 222.498182 185.870679 
L 220.301818 185.870679 
L 215.909091 186.212054 
L 211.516364 186.980781 
L 207.123636 188.188781 
L 202.730909 189.763168 
L 198.338182 191.693603 
L 193.945455 193.933644 
L 188.518618 197.090909 
L 185.022737 199.287273 
L 180.767273 202.129333 
L 174.178182 206.856213 
L 165.392727 213.627988 
L 154.410909 222.650333 
L 138.339167 236.625455 
L 130.250909 243.880023 
L 121.36698 252 
L 121.36698 252 
" style="fill:none;stroke:#008080;stroke-width:1.5;"/>
    <path clip-path="url(#pb70165b854)" d="M 121.36698 34.56 
L 126.161463 38.952727 
L 136.84 48.6097 
L 150.90617 60.916364 
L 156.607273 65.752281 
L 165.392727 72.932012 
L 174.178182 79.703787 
L 181.735818 85.076364 
L 185.16 87.366066 
L 189.552727 90.11541 
L 193.945455 92.626356 
L 198.338182 94.866397 
L 202.730909 96.796832 
L 207.123636 98.371219 
L 211.516364 99.579219 
L 215.909091 100.347946 
L 220.301818 100.689321 
L 222.498182 100.689321 
L 226.890909 100.347946 
L 231.283636 99.579219 
L 235.676364 98.371219 
L 240.069091 96.796832 
L 244.461818 94.866397 
L 248.854545 92.626356 
L 254.281383 89.469091 
L 257.777263 87.272727 
L 262.032727 84.430667 
L 268.621818 79.703787 
L 277.407273 72.932012 
L 288.389091 63.909667 
L 304.460833 49.934545 
L 312.549091 42.679977 
L 321.43302 34.56 
L 321.43302 34.56 
" style="fill:none;stroke:#008080;stroke-width:1.5;"/>
   </g>
   <g id="LineCollection_54"/>
   <g id="LineCollection_55"/>
   <g id="LineCollection_56">
    <path clip-path="url(#pb70165b854)" d="M 112.68 241.687428 
L 119.269091 234.360082 
L 128.876184 223.447273 
L 140.028396 210.269091 
L 148.800984 199.287273 
L 155.341567 190.501818 
L 159.879211 183.912727 
L 164.016773 177.323636 
L 166.509516 172.930909 
L 168.752413 168.538182 
L 170.712874 164.145455 
L 172.352384 159.752727 
L 173.650236 155.36 
L 174.566394 150.967273 
L 175.089338 146.574545 
L 175.193926 142.181818 
L 174.88016 137.789091 
L 174.149409 133.396364 
L 173.051227 129.003636 
L 171.57232 124.610909 
L 169.75908 120.218182 
L 167.589091 115.705196 
L 165.283906 111.432727 
L 162.684838 107.04 
L 158.803636 101.062215 
L 156.607273 97.866333 
L 153.752836 93.861818 
L 147.821818 86.029941 
L 143.599265 80.683636 
L 130.250909 64.716573 
L 123.110863 56.523636 
L 112.68 44.872572 
L 112.68 44.872572 
" style="fill:none;stroke:#8f008f;stroke-width:1.5;"/>
    <path clip-path="url(#pb70165b854)" d="M 330.12 44.872572 
L 323.530909 52.199918 
L 313.923816 63.112727 
L 302.771604 76.290909 
L 293.999016 87.272727 
L 287.458433 96.058182 
L 282.920789 102.647273 
L 278.783227 109.236364 
L 276.290484 113.629091 
L 274.047587 118.021818 
L 272.087126 122.414545 
L 270.447616 126.807273 
L 269.149764 131.2 
L 268.233606 135.592727 
L 267.710662 139.985455 
L 267.606074 144.378182 
L 267.91984 148.770909 
L 268.650591 153.163636 
L 269.748773 157.556364 
L 271.22768 161.949091 
L 273.04092 166.341818 
L 275.210909 170.854804 
L 277.516094 175.127273 
L 280.115162 179.52 
L 283.996364 185.497785 
L 286.192727 188.693667 
L 289.047164 192.698182 
L 294.978182 200.530059 
L 299.200735 205.876364 
L 312.549091 221.843427 
L 319.689137 230.036364 
L 330.12 241.687428 
L 330.12 241.687428 
" style="fill:none;stroke:#8f008f;stroke-width:1.5;"/>
   </g>
   <g id="LineCollection_57"/>
   <g id="LineCollection_58"/>
   <g id="LineCollection_59">
    <path clip-path="url(#pb70165b854)" d="M 319.807428 252 
L 312.480082 245.410909 
L 301.567273 235.803816 
L 288.389091 224.651604 
L 277.407273 215.879016 
L 268.621818 209.338433 
L 262.032727 204.800789 
L 255.443636 200.663227 
L 251.050909 198.170484 
L 246.658182 195.927587 
L 242.265455 193.967126 
L 237.872727 192.327616 
L 233.48 191.029764 
L 229.087273 190.113606 
L 224.694545 189.590662 
L 220.301818 189.486074 
L 215.909091 189.79984 
L 211.516364 190.530591 
L 207.123636 191.628773 
L 202.730909 193.10768 
L 198.338182 194.92092 
L 193.825196 197.090909 
L 189.552727 199.396094 
L 185.16 201.995162 
L 179.182215 205.876364 
L 175.986333 208.072727 
L 171.981818 210.927164 
L 164.149941 216.858182 
L 158.803636 221.080735 
L 142.836573 234.429091 
L 134.643636 241.569137 
L 122.992572 252 
L 122.992572 252 
" style="fill:none;stroke:#008f8f;stroke-width:1.5;"/>
    <path clip-path="url(#pb70165b854)" d="M 122.992572 34.56 
L 130.319918 41.149091 
L 141.232727 50.756184 
L 154.410909 61.908396 
L 165.392727 70.680984 
L 174.178182 77.221567 
L 180.767273 81.759211 
L 187.356364 85.896773 
L 191.749091 88.389516 
L 196.141818 90.632413 
L 200.534545 92.592874 
L 204.927273 94.232384 
L 209.32 95.530236 
L 213.712727 96.446394 
L 218.105455 96.969338 
L 222.498182 97.073926 
L 226.890909 96.76016 
L 231.283636 96.029409 
L 235.676364 94.931227 
L 240.069091 93.45232 
L 244.461818 91.63908 
L 248.974804 89.469091 
L 253.247273 87.163906 
L 257.64 84.564838 
L 263.617785 80.683636 
L 266.813667 78.487273 
L 270.818182 75.632836 
L 278.650059 69.701818 
L 283.996364 65.479265 
L 299.963427 52.130909 
L 308.156364 44.990863 
L 319.807428 34.56 
L 319.807428 34.56 
" style="fill:none;stroke:#008f8f;stroke-width:1.5;"/>
   </g>
   <g id="LineCollection_60"/>
   <g id="LineCollection_61"/>
   <g id="LineCollection_62">
    <path clip-path="url(#pb70165b854)" d="M 112.68 239.901963 
L 119.442827 232.232727 
L 128.87236 221.250909 
L 137.917297 210.269091 
L 145.625455 200.354931 
L 149.661351 194.894545 
L 155.702274 186.109091 
L 159.795033 179.52 
L 163.196364 173.344872 
L 164.517449 170.734545 
L 166.503092 166.341818 
L 168.19663 161.949091 
L 169.569357 157.556364 
L 170.610396 153.163636 
L 171.278855 148.770909 
L 171.565337 144.378182 
L 171.469843 139.985455 
L 170.992373 135.592727 
L 170.132926 131.2 
L 168.928751 126.807273 
L 167.381638 122.414545 
L 165.392727 117.721892 
L 163.196364 113.215128 
L 161 109.148691 
L 158.473324 104.843636 
L 155.702274 100.450909 
L 151.228836 93.861818 
L 144.786988 85.076364 
L 137.917297 76.290909 
L 128.054545 64.354974 
L 121.465455 56.656619 
L 117.072727 51.626861 
L 112.68 46.658037 
L 112.68 46.658037 
" style="fill:none;stroke:#9f009f;stroke-width:1.5;"/>
    <path clip-path="url(#pb70165b854)" d="M 330.12 46.658037 
L 323.357173 54.327273 
L 313.92764 65.309091 
L 304.882703 76.290909 
L 297.174545 86.205069 
L 293.138649 91.665455 
L 287.097726 100.450909 
L 283.004967 107.04 
L 279.603636 113.215128 
L 278.282551 115.825455 
L 276.296908 120.218182 
L 274.60337 124.610909 
L 273.230643 129.003636 
L 272.189604 133.396364 
L 271.521145 137.789091 
L 271.234663 142.181818 
L 271.330157 146.574545 
L 271.807627 150.967273 
L 272.667074 155.36 
L 273.871249 159.752727 
L 275.418363 164.145455 
L 277.407273 168.838108 
L 279.603636 173.344872 
L 281.8 177.411309 
L 284.326676 181.716364 
L 287.097726 186.109091 
L 291.571164 192.698182 
L 298.013012 201.483636 
L 304.882703 210.269091 
L 314.745455 222.205026 
L 321.334545 229.903381 
L 325.727273 234.933139 
L 330.12 239.901963 
L 330.12 239.901963 
" style="fill:none;stroke:#9f009f;stroke-width:1.5;"/>
   </g>
   <g id="LineCollection_63"/>
   <g id="LineCollection_64"/>
   <g id="LineCollection_65">
    <path clip-path="url(#pb70165b854)" d="M 318.021963 252 
L 310.352727 245.237173 
L 299.370909 235.80764 
L 288.389091 226.762703 
L 278.474931 219.054545 
L 273.014545 215.018649 
L 264.229091 208.977726 
L 257.64 204.884967 
L 251.464872 201.483636 
L 248.854545 200.162551 
L 244.461818 198.176908 
L 240.069091 196.48337 
L 235.676364 195.110643 
L 231.283636 194.069604 
L 226.890909 193.401145 
L 222.498182 193.114663 
L 218.105455 193.210157 
L 213.712727 193.687627 
L 209.32 194.547074 
L 204.927273 195.751249 
L 200.534545 197.298362 
L 195.841892 199.287273 
L 191.335128 201.483636 
L 187.268691 203.68 
L 182.963636 206.206676 
L 178.570909 208.977726 
L 171.981818 213.451164 
L 163.196364 219.893012 
L 154.410909 226.762703 
L 142.474974 236.625455 
L 134.776619 243.214545 
L 129.746861 247.607273 
L 124.778037 252 
L 124.778037 252 
" style="fill:none;stroke:#009f9f;stroke-width:1.5;"/>
    <path clip-path="url(#pb70165b854)" d="M 124.778037 34.56 
L 132.447273 41.322827 
L 143.429091 50.75236 
L 154.410909 59.797297 
L 164.325069 67.505455 
L 169.785455 71.541351 
L 178.570909 77.582274 
L 185.16 81.675033 
L 191.335128 85.076364 
L 193.945455 86.397449 
L 198.338182 88.383092 
L 202.730909 90.07663 
L 207.123636 91.449357 
L 211.516364 92.490396 
L 215.909091 93.158855 
L 220.301818 93.445337 
L 224.694545 93.349843 
L 229.087273 92.872373 
L 233.48 92.012926 
L 237.872727 90.808751 
L 242.265455 89.261637 
L 246.958108 87.272727 
L 251.464872 85.076364 
L 255.531309 82.88 
L 259.836364 80.353324 
L 264.229091 77.582274 
L 270.818182 73.108836 
L 279.603636 66.666988 
L 288.389091 59.797297 
L 300.325026 49.934545 
L 308.023381 43.345455 
L 313.053139 38.952727 
L 318.021963 34.56 
L 318.021963 34.56 
" style="fill:none;stroke:#009f9f;stroke-width:1.5;"/>
   </g>
   <g id="LineCollection_66"/>
   <g id="LineCollection_67"/>
   <g id="LineCollection_68">
    <path clip-path="url(#pb70165b854)" d="M 112.68 237.945471 
L 119.500332 230.036364 
L 128.67387 219.054545 
L 136.84 208.793358 
L 140.748521 203.68 
L 147.821818 193.829123 
L 150.076045 190.501818 
L 152.91193 186.109091 
L 156.822596 179.52 
L 159.183533 175.127273 
L 161.31262 170.734545 
L 163.196364 166.307346 
L 164.78814 161.949091 
L 166.081775 157.556364 
L 167.048175 153.163636 
L 167.666242 148.770909 
L 167.940788 144.378182 
L 167.849273 139.985455 
L 167.399593 135.592727 
L 166.608902 131.2 
L 165.392727 126.575818 
L 164.02786 122.414545 
L 162.288781 118.021818 
L 160.281714 113.629091 
L 158.034382 109.236364 
L 155.570812 104.843636 
L 151.517409 98.254545 
L 147.101091 91.665455 
L 141.232727 83.543542 
L 137.408919 78.487273 
L 126.871729 65.309091 
L 114.876364 51.145524 
L 112.68 48.614529 
L 112.68 48.614529 
" style="fill:none;stroke:#af00af;stroke-width:1.5;"/>
    <path clip-path="url(#pb70165b854)" d="M 330.12 48.614529 
L 323.299668 56.523636 
L 314.12613 67.505455 
L 305.96 77.766642 
L 302.051479 82.88 
L 294.978182 92.730877 
L 292.723955 96.058182 
L 289.88807 100.450909 
L 285.977404 107.04 
L 283.616467 111.432727 
L 281.48738 115.825455 
L 279.603636 120.252654 
L 278.01186 124.610909 
L 276.718225 129.003636 
L 275.751825 133.396364 
L 275.133758 137.789091 
L 274.859212 142.181818 
L 274.950727 146.574545 
L 275.400407 150.967273 
L 276.191098 155.36 
L 277.407273 159.984182 
L 278.77214 164.145455 
L 280.511219 168.538182 
L 282.518286 172.930909 
L 284.765618 177.323636 
L 287.229188 181.716364 
L 291.282591 188.305455 
L 295.698909 194.894545 
L 301.567273 203.016458 
L 305.391081 208.072727 
L 315.928271 221.250909 
L 327.923636 235.414476 
L 330.12 237.945471 
L 330.12 237.945471 
" style="fill:none;stroke:#af00af;stroke-width:1.5;"/>
   </g>
   <g id="LineCollection_69"/>
   <g id="LineCollection_70"/>
   <g id="LineCollection_71">
    <path clip-path="url(#pb70165b854)" d="M 316.065471 252 
L 308.156364 245.179668 
L 297.174545 236.00613 
L 286.913358 227.84 
L 281.8 223.931479 
L 271.949123 216.858182 
L 268.621818 214.603955 
L 264.229091 211.76807 
L 257.64 207.857404 
L 253.247273 205.496467 
L 248.854545 203.36738 
L 244.427346 201.483636 
L 240.069091 199.89186 
L 235.676364 198.598225 
L 231.283636 197.631825 
L 226.890909 197.013758 
L 222.498182 196.739212 
L 218.105455 196.830727 
L 213.712727 197.280407 
L 209.32 198.071098 
L 204.695818 199.287273 
L 200.534545 200.65214 
L 196.141818 202.391219 
L 191.749091 204.398286 
L 187.356364 206.645618 
L 182.963636 209.109188 
L 176.374545 213.162591 
L 169.785455 217.578909 
L 161.663542 223.447273 
L 156.607273 227.271081 
L 143.429091 237.808271 
L 129.265524 249.803636 
L 126.734529 252 
L 126.734529 252 
" style="fill:none;stroke:#00afaf;stroke-width:1.5;"/>
    <path clip-path="url(#pb70165b854)" d="M 126.734529 34.56 
L 134.643636 41.380332 
L 145.625455 50.55387 
L 155.886642 58.72 
L 161 62.628521 
L 170.850877 69.701818 
L 174.178182 71.956045 
L 178.570909 74.79193 
L 185.16 78.702596 
L 189.552727 81.063533 
L 193.945455 83.19262 
L 198.372654 85.076364 
L 202.730909 86.66814 
L 207.123636 87.961775 
L 211.516364 88.928175 
L 215.909091 89.546242 
L 220.301818 89.820788 
L 224.694545 89.729273 
L 229.087273 89.279593 
L 233.48 88.488902 
L 238.104182 87.272727 
L 242.265455 85.90786 
L 246.658182 84.168781 
L 251.050909 82.161714 
L 255.443636 79.914382 
L 259.836364 77.450812 
L 266.425455 73.397409 
L 273.014545 68.981091 
L 281.136458 63.112727 
L 286.192727 59.288919 
L 299.370909 48.751729 
L 313.534476 36.756364 
L 316.065471 34.56 
L 316.065471 34.56 
" style="fill:none;stroke:#00afaf;stroke-width:1.5;"/>
   </g>
   <g id="LineCollection_72"/>
   <g id="LineCollection_73"/>
   <g id="LineCollection_74">
    <path clip-path="url(#pb70165b854)" d="M 112.68 235.805736 
L 119.380099 227.84 
L 126.538795 219.054545 
L 133.398568 210.269091 
L 139.886708 201.483636 
L 144.453533 194.894545 
L 148.708678 188.305455 
L 152.591819 181.716364 
L 154.947182 177.323636 
L 157.086301 172.930909 
L 158.986007 168.538182 
L 160.63328 164.145455 
L 162.002593 159.752727 
L 163.060101 155.36 
L 163.81514 150.967273 
L 164.237518 146.574545 
L 164.321993 142.181818 
L 164.068567 137.789091 
L 163.477238 133.396364 
L 162.572021 129.003636 
L 161.351819 124.610909 
L 159.848864 120.218182 
L 158.070878 115.825455 
L 156.045364 111.432727 
L 153.796276 107.04 
L 151.344574 102.647273 
L 147.326016 96.058182 
L 142.960834 89.469091 
L 138.303756 82.88 
L 131.714701 74.094545 
L 123.661818 63.947045 
L 119.269091 58.589067 
L 112.68 50.754264 
L 112.68 50.754264 
" style="fill:none;stroke:#bf00bf;stroke-width:1.5;"/>
    <path clip-path="url(#pb70165b854)" d="M 330.12 50.754264 
L 323.419901 58.72 
L 316.261205 67.505455 
L 309.401432 76.290909 
L 302.913292 85.076364 
L 298.346467 91.665455 
L 294.091322 98.254545 
L 290.208181 104.843636 
L 287.852818 109.236364 
L 285.713699 113.629091 
L 283.813993 118.021818 
L 282.16672 122.414545 
L 280.797407 126.807273 
L 279.739899 131.2 
L 278.98486 135.592727 
L 278.562482 139.985455 
L 278.478007 144.378182 
L 278.731433 148.770909 
L 279.322762 153.163636 
L 280.227979 157.556364 
L 281.448181 161.949091 
L 282.951136 166.341818 
L 284.729122 170.734545 
L 286.754636 175.127273 
L 289.003724 179.52 
L 291.455426 183.912727 
L 295.473984 190.501818 
L 299.839166 197.090909 
L 304.496244 203.68 
L 311.085299 212.465455 
L 319.138182 222.612955 
L 323.530909 227.970933 
L 330.12 235.805736 
L 330.12 235.805736 
" style="fill:none;stroke:#bf00bf;stroke-width:1.5;"/>
   </g>
   <g id="LineCollection_75"/>
   <g id="LineCollection_76"/>
   <g id="LineCollection_77">
    <path clip-path="url(#pb70165b854)" d="M 313.925736 252 
L 305.96 245.299901 
L 297.174545 238.141205 
L 288.389091 231.281432 
L 279.603636 224.793292 
L 273.014545 220.226467 
L 266.425455 215.971322 
L 259.836364 212.088181 
L 255.443636 209.732818 
L 251.050909 207.593699 
L 246.658182 205.693993 
L 242.265455 204.04672 
L 237.872727 202.677407 
L 233.48 201.619899 
L 229.087273 200.86486 
L 224.694545 200.442482 
L 220.301818 200.358007 
L 215.909091 200.611433 
L 211.516364 201.202762 
L 207.123636 202.107979 
L 202.730909 203.328181 
L 198.338182 204.831136 
L 193.945455 206.609122 
L 189.552727 208.634636 
L 185.16 210.883724 
L 180.767273 213.335426 
L 174.178182 217.353984 
L 167.589091 221.719166 
L 161 226.376244 
L 152.214545 232.965299 
L 142.067045 241.018182 
L 136.709067 245.410909 
L 128.874264 252 
L 128.874264 252 
" style="fill:none;stroke:#00bfbf;stroke-width:1.5;"/>
    <path clip-path="url(#pb70165b854)" d="M 128.874264 34.56 
L 136.84 41.260099 
L 145.625455 48.418795 
L 154.410909 55.278568 
L 163.196364 61.766708 
L 169.785455 66.333533 
L 176.374545 70.588678 
L 182.963636 74.471819 
L 187.356364 76.827182 
L 191.749091 78.966301 
L 196.141818 80.866007 
L 200.534545 82.51328 
L 204.927273 83.882593 
L 209.32 84.940101 
L 213.712727 85.69514 
L 218.105455 86.117518 
L 222.498182 86.201993 
L 226.890909 85.948567 
L 231.283636 85.357238 
L 235.676364 84.452021 
L 240.069091 83.231819 
L 244.461818 81.728864 
L 248.854545 79.950878 
L 253.247273 77.925364 
L 257.64 75.676276 
L 262.032727 73.224574 
L 268.621818 69.206016 
L 275.210909 64.840834 
L 281.8 60.183756 
L 290.585455 53.594701 
L 300.732955 45.541818 
L 306.090933 41.149091 
L 313.925736 34.56 
L 313.925736 34.56 
" style="fill:none;stroke:#00bfbf;stroke-width:1.5;"/>
   </g>
   <g id="LineCollection_78"/>
   <g id="LineCollection_79"/>
   <g id="LineCollection_80">
    <path clip-path="url(#pb70165b854)" d="M 112.68 233.469349 
L 113.714725 232.232727 
L 114.876364 230.80972 
L 115.520827 230.036364 
L 117.072727 228.126332 
L 117.310322 227.84 
L 119.086106 225.643636 
L 119.269091 225.411196 
L 120.848768 223.447273 
L 121.465455 222.659284 
L 122.592155 221.250909 
L 123.661818 219.875628 
L 124.314952 219.054545 
L 125.858182 217.057424 
L 126.015722 216.858182 
L 127.701304 214.661818 
L 128.054545 214.187149 
L 129.366313 212.465455 
L 130.250909 211.26697 
L 131.005403 210.269091 
L 132.447273 208.298535 
L 132.616629 208.072727 
L 134.208992 205.876364 
L 134.643636 205.255444 
L 135.774724 203.68 
L 136.84 202.141268 
L 137.307265 201.483636 
L 138.81004 199.287273 
L 139.036364 198.94326 
L 140.287952 197.090909 
L 141.232727 195.634381 
L 141.725951 194.894545 
L 143.129183 192.698182 
L 143.429091 192.207424 
L 144.501186 190.501818 
L 145.625455 188.628037 
L 145.824697 188.305455 
L 147.116675 186.109091 
L 147.821818 184.847257 
L 148.35988 183.912727 
L 149.557897 181.716364 
L 150.018182 180.82287 
L 150.710331 179.52 
L 151.808513 177.323636 
L 152.214545 176.457434 
L 152.858172 175.127273 
L 153.850078 172.930909 
L 154.410909 171.593543 
L 154.783141 170.734545 
L 155.661687 168.538182 
L 156.46702 166.341818 
L 156.607273 165.92106 
L 157.219551 164.145455 
L 157.901181 161.949091 
L 158.507074 159.752727 
L 158.803636 158.524112 
L 159.045573 157.556364 
L 159.516223 155.36 
L 159.908431 153.163636 
L 160.222197 150.967273 
L 160.457521 148.770909 
L 160.614405 146.574545 
L 160.692846 144.378182 
L 160.692846 142.181818 
L 160.614405 139.985455 
L 160.457521 137.789091 
L 160.222197 135.592727 
L 159.908431 133.396364 
L 159.516223 131.2 
L 159.045573 129.003636 
L 158.803636 128.035888 
L 158.507074 126.807273 
L 157.901181 124.610909 
L 157.219551 122.414545 
L 156.607273 120.63894 
L 156.46702 120.218182 
L 155.661687 118.021818 
L 154.783141 115.825455 
L 154.410909 114.966457 
L 153.850078 113.629091 
L 152.858172 111.432727 
L 152.214545 110.102566 
L 151.808513 109.236364 
L 150.710331 107.04 
L 150.018182 105.73713 
L 149.557897 104.843636 
L 148.35988 102.647273 
L 147.821818 101.712743 
L 147.116675 100.450909 
L 145.824697 98.254545 
L 145.625455 97.931963 
L 144.501186 96.058182 
L 143.429091 94.352576 
L 143.129183 93.861818 
L 141.725951 91.665455 
L 141.232727 90.925619 
L 140.287952 89.469091 
L 139.036364 87.61674 
L 138.81004 87.272727 
L 137.307265 85.076364 
L 136.84 84.418732 
L 135.774724 82.88 
L 134.643636 81.304556 
L 134.208992 80.683636 
L 132.616629 78.487273 
L 132.447273 78.261465 
L 131.005403 76.290909 
L 130.250909 75.29303 
L 129.366313 74.094545 
L 128.054545 72.372851 
L 127.701304 71.898182 
L 126.015722 69.701818 
L 125.858182 69.502576 
L 124.314952 67.505455 
L 123.661818 66.684372 
L 122.592155 65.309091 
L 121.465455 63.900716 
L 120.848768 63.112727 
L 119.269091 61.148804 
L 119.086106 60.916364 
L 117.310322 58.72 
L 117.072727 58.433668 
L 115.520827 56.523636 
L 114.876364 55.75028 
L 113.714725 54.327273 
L 112.68 53.090651 
" style="fill:none;stroke:#cf00cf;stroke-width:1.5;"/>
    <path clip-path="url(#pb70165b854)" d="M 330.12 53.090651 
L 329.085275 54.327273 
L 327.923636 55.75028 
L 327.279173 56.523636 
L 325.727273 58.433668 
L 325.489678 58.72 
L 323.713894 60.916364 
L 323.530909 61.148804 
L 321.951232 63.112727 
L 321.334545 63.900716 
L 320.207845 65.309091 
L 319.138182 66.684372 
L 318.485048 67.505455 
L 316.941818 69.502576 
L 316.784278 69.701818 
L 315.098696 71.898182 
L 314.745455 72.372851 
L 313.433687 74.094545 
L 312.549091 75.29303 
L 311.794597 76.290909 
L 310.352727 78.261465 
L 310.183371 78.487273 
L 308.591008 80.683636 
L 308.156364 81.304556 
L 307.025276 82.88 
L 305.96 84.418732 
L 305.492735 85.076364 
L 303.98996 87.272727 
L 303.763636 87.61674 
L 302.512048 89.469091 
L 301.567273 90.925619 
L 301.074049 91.665455 
L 299.670817 93.861818 
L 299.370909 94.352576 
L 298.298814 96.058182 
L 297.174545 97.931963 
L 296.975303 98.254545 
L 295.683325 100.450909 
L 294.978182 101.712743 
L 294.44012 102.647273 
L 293.242103 104.843636 
L 292.781818 105.73713 
L 292.089669 107.04 
L 290.991487 109.236364 
L 290.585455 110.102566 
L 289.941828 111.432727 
L 288.949922 113.629091 
L 288.389091 114.966457 
L 288.016859 115.825455 
L 287.138313 118.021818 
L 286.33298 120.218182 
L 286.192727 120.63894 
L 285.580449 122.414545 
L 284.898819 124.610909 
L 284.292926 126.807273 
L 283.996364 128.035888 
L 283.754427 129.003636 
L 283.283777 131.2 
L 282.891569 133.396364 
L 282.577803 135.592727 
L 282.342479 137.789091 
L 282.185595 139.985455 
L 282.107154 142.181818 
L 282.107154 144.378182 
L 282.185595 146.574545 
L 282.342479 148.770909 
L 282.577803 150.967273 
L 282.891569 153.163636 
L 283.283777 155.36 
L 283.754427 157.556364 
L 283.996364 158.524112 
L 284.292926 159.752727 
L 284.898819 161.949091 
L 285.580449 164.145455 
L 286.192727 165.92106 
L 286.33298 166.341818 
L 287.138313 168.538182 
L 288.016859 170.734545 
L 288.389091 171.593543 
L 288.949922 172.930909 
L 289.941828 175.127273 
L 290.585455 176.457434 
L 290.991487 177.323636 
L 292.089669 179.52 
L 292.781818 180.82287 
L 293.242103 181.716364 
L 294.44012 183.912727 
L 294.978182 184.847257 
L 295.683325 186.109091 
L 296.975303 188.305455 
L 297.174545 188.628037 
L 298.298814 190.501818 
L 299.370909 192.207424 
L 299.670817 192.698182 
L 301.074049 194.894545 
L 301.567273 195.634381 
L 302.512048 197.090909 
L 303.763636 198.94326 
L 303.98996 199.287273 
L 305.492735 201.483636 
L 305.96 202.141268 
L 307.025276 203.68 
L 308.156364 205.255444 
L 308.591008 205.876364 
L 310.183371 208.072727 
L 310.352727 208.298535 
L 311.794597 210.269091 
L 312.549091 211.26697 
L 313.433687 212.465455 
L 314.745455 214.187149 
L 315.098696 214.661818 
L 316.784278 216.858182 
L 316.941818 217.057424 
L 318.485048 219.054545 
L 319.138182 219.875628 
L 320.207845 221.250909 
L 321.334545 222.659284 
L 321.951232 223.447273 
L 323.530909 225.411196 
L 323.713894 225.643636 
L 325.489678 227.84 
L 325.727273 228.126332 
L 327.279173 230.036364 
L 327.923636 230.80972 
L 329.085275 232.232727 
L 330.12 233.469349 
" style="fill:none;stroke:#cf00cf;stroke-width:1.5;"/>
   </g>
   <g id="LineCollection_81"/>
   <g id="LineCollection_82"/>
   <g id="LineCollection_83">
    <path clip-path="url(#pb70165b854)" d="M 311.589349 252 
L 310.352727 250.965275 
L 308.92972 249.803636 
L 308.156364 249.159173 
L 306.246332 247.607273 
L 305.96 247.369678 
L 303.763636 245.593894 
L 303.531196 245.410909 
L 301.567273 243.831232 
L 300.779284 243.214545 
L 299.370909 242.087845 
L 297.995628 241.018182 
L 297.174545 240.365048 
L 295.177424 238.821818 
L 294.978182 238.664278 
L 292.781818 236.978696 
L 292.307149 236.625455 
L 290.585455 235.313687 
L 289.38697 234.429091 
L 288.389091 233.674597 
L 286.418535 232.232727 
L 286.192727 232.063371 
L 283.996364 230.471008 
L 283.375444 230.036364 
L 281.8 228.905276 
L 280.261268 227.84 
L 279.603636 227.372735 
L 277.407273 225.86996 
L 277.06326 225.643636 
L 275.210909 224.392048 
L 273.754381 223.447273 
L 273.014545 222.954049 
L 270.818182 221.550817 
L 270.327424 221.250909 
L 268.621818 220.178814 
L 266.748037 219.054545 
L 266.425455 218.855303 
L 264.229091 217.563325 
L 262.967257 216.858182 
L 262.032727 216.32012 
L 259.836364 215.122103 
L 258.94287 214.661818 
L 257.64 213.969669 
L 255.443636 212.871487 
L 254.577434 212.465455 
L 253.247273 211.821828 
L 251.050909 210.829922 
L 249.713543 210.269091 
L 248.854545 209.896859 
L 246.658182 209.018313 
L 244.461818 208.21298 
L 244.04106 208.072727 
L 242.265455 207.460449 
L 240.069091 206.778819 
L 237.872727 206.172926 
L 236.644112 205.876364 
L 235.676364 205.634427 
L 233.48 205.163777 
L 231.283636 204.771569 
L 229.087273 204.457803 
L 226.890909 204.222479 
L 224.694545 204.065595 
L 222.498182 203.987154 
L 220.301818 203.987154 
L 218.105455 204.065595 
L 215.909091 204.222479 
L 213.712727 204.457803 
L 211.516364 204.771569 
L 209.32 205.163777 
L 207.123636 205.634427 
L 206.155888 205.876364 
L 204.927273 206.172926 
L 202.730909 206.778819 
L 200.534545 207.460449 
L 198.75894 208.072727 
L 198.338182 208.21298 
L 196.141818 209.018313 
L 193.945455 209.896859 
L 193.086457 210.269091 
L 191.749091 210.829922 
L 189.552727 211.821828 
L 188.222566 212.465455 
L 187.356364 212.871487 
L 185.16 213.969669 
L 183.85713 214.661818 
L 182.963636 215.122103 
L 180.767273 216.32012 
L 179.832743 216.858182 
L 178.570909 217.563325 
L 176.374545 218.855303 
L 176.051963 219.054545 
L 174.178182 220.178814 
L 172.472576 221.250909 
L 171.981818 221.550817 
L 169.785455 222.954049 
L 169.045619 223.447273 
L 167.589091 224.392048 
L 165.73674 225.643636 
L 165.392727 225.86996 
L 163.196364 227.372735 
L 162.538732 227.84 
L 161 228.905276 
L 159.424556 230.036364 
L 158.803636 230.471008 
L 156.607273 232.063371 
L 156.381465 232.232727 
L 154.410909 233.674597 
L 153.41303 234.429091 
L 152.214545 235.313687 
L 150.492851 236.625455 
L 150.018182 236.978696 
L 147.821818 238.664278 
L 147.622576 238.821818 
L 145.625455 240.365048 
L 144.804372 241.018182 
L 143.429091 242.087845 
L 142.020716 243.214545 
L 141.232727 243.831232 
L 139.268804 245.410909 
L 139.036364 245.593894 
L 136.84 247.369678 
L 136.553668 247.607273 
L 134.643636 249.159173 
L 133.87028 249.803636 
L 132.447273 250.965275 
L 131.210651 252 
" style="fill:none;stroke:#00cfcf;stroke-width:1.5;"/>
    <path clip-path="url(#pb70165b854)" d="M 131.210651 34.56 
L 132.447273 35.594725 
L 133.87028 36.756364 
L 134.643636 37.400827 
L 136.553668 38.952727 
L 136.84 39.190322 
L 139.036364 40.966106 
L 139.268804 41.149091 
L 141.232727 42.728768 
L 142.020716 43.345455 
L 143.429091 44.472155 
L 144.804372 45.541818 
L 145.625455 46.194952 
L 147.622576 47.738182 
L 147.821818 47.895722 
L 150.018182 49.581304 
L 150.492851 49.934545 
L 152.214545 51.246313 
L 153.41303 52.130909 
L 154.410909 52.885403 
L 156.381465 54.327273 
L 156.607273 54.496629 
L 158.803636 56.088992 
L 159.424556 56.523636 
L 161 57.654724 
L 162.538732 58.72 
L 163.196364 59.187265 
L 165.392727 60.69004 
L 165.73674 60.916364 
L 167.589091 62.167952 
L 169.045619 63.112727 
L 169.785455 63.605951 
L 171.981818 65.009183 
L 172.472576 65.309091 
L 174.178182 66.381186 
L 176.051963 67.505455 
L 176.374545 67.704697 
L 178.570909 68.996675 
L 179.832743 69.701818 
L 180.767273 70.23988 
L 182.963636 71.437897 
L 183.85713 71.898182 
L 185.16 72.590331 
L 187.356364 73.688513 
L 188.222566 74.094545 
L 189.552727 74.738172 
L 191.749091 75.730078 
L 193.086457 76.290909 
L 193.945455 76.663141 
L 196.141818 77.541687 
L 198.338182 78.34702 
L 198.75894 78.487273 
L 200.534545 79.099551 
L 202.730909 79.781181 
L 204.927273 80.387074 
L 206.155888 80.683636 
L 207.123636 80.925573 
L 209.32 81.396223 
L 211.516364 81.788431 
L 213.712727 82.102197 
L 215.909091 82.337521 
L 218.105455 82.494405 
L 220.301818 82.572846 
L 222.498182 82.572846 
L 224.694545 82.494405 
L 226.890909 82.337521 
L 229.087273 82.102197 
L 231.283636 81.788431 
L 233.48 81.396223 
L 235.676364 80.925573 
L 236.644112 80.683636 
L 237.872727 80.387074 
L 240.069091 79.781181 
L 242.265455 79.099551 
L 244.04106 78.487273 
L 244.461818 78.34702 
L 246.658182 77.541687 
L 248.854545 76.663141 
L 249.713543 76.290909 
L 251.050909 75.730078 
L 253.247273 74.738172 
L 254.577434 74.094545 
L 255.443636 73.688513 
L 257.64 72.590331 
L 258.94287 71.898182 
L 259.836364 71.437897 
L 262.032727 70.23988 
L 262.967257 69.701818 
L 264.229091 68.996675 
L 266.425455 67.704697 
L 266.748037 67.505455 
L 268.621818 66.381186 
L 270.327424 65.309091 
L 270.818182 65.009183 
L 273.014545 63.605951 
L 273.754381 63.112727 
L 275.210909 62.167952 
L 277.06326 60.916364 
L 277.407273 60.69004 
L 279.603636 59.187265 
L 280.261268 58.72 
L 281.8 57.654724 
L 283.375444 56.523636 
L 283.996364 56.088992 
L 286.192727 54.496629 
L 286.418535 54.327273 
L 288.389091 52.885403 
L 289.38697 52.130909 
L 290.585455 51.246313 
L 292.307149 49.934545 
L 292.781818 49.581304 
L 294.978182 47.895722 
L 295.177424 47.738182 
L 297.174545 46.194952 
L 297.995628 45.541818 
L 299.370909 44.472155 
L 300.779284 43.345455 
L 301.567273 42.728768 
L 303.531196 41.149091 
L 303.763636 40.966106 
L 305.96 39.190322 
L 306.246332 38.952727 
L 308.156364 37.400827 
L 308.92972 36.756364 
L 310.352727 35.594725 
L 311.589349 34.56 
" style="fill:none;stroke:#00cfcf;stroke-width:1.5;"/>
   </g>
   <g id="LineCollection_84"/>
   <g id="LineCollection_85"/>
   <g id="LineCollection_86">
    <path clip-path="url(#pb70165b854)" d="M 112.68 230.921563 
L 113.402611 230.036364 
L 114.876364 228.184726 
L 115.156454 227.84 
L 116.895242 225.643636 
L 117.072727 225.413385 
L 118.620517 223.447273 
L 119.269091 222.600524 
L 120.325311 221.250909 
L 121.465455 219.752435 
L 122.008258 219.054545 
L 123.661818 216.866009 
L 123.667867 216.858182 
L 125.315139 214.661818 
L 125.858182 213.915135 
L 126.937014 212.465455 
L 128.054545 210.91533 
L 128.531531 210.269091 
L 130.100363 208.072727 
L 130.250909 207.854694 
L 131.650216 205.876364 
L 132.447273 204.709245 
L 133.167744 203.68 
L 134.643636 201.493493 
L 134.65046 201.483636 
L 136.114703 199.287273 
L 136.84 198.155809 
L 137.540592 197.090909 
L 138.927769 194.894545 
L 139.036364 194.715129 
L 140.290141 192.698182 
L 141.232727 191.112924 
L 141.606181 190.501818 
L 142.887393 188.305455 
L 143.429091 187.330398 
L 144.126981 186.109091 
L 145.319292 183.912727 
L 145.625455 183.317412 
L 146.473068 181.716364 
L 147.57125 179.52 
L 147.821818 178.987543 
L 148.628561 177.323636 
L 149.626908 175.127273 
L 150.018182 174.204984 
L 150.57559 172.930909 
L 151.467862 170.734545 
L 152.214545 168.74339 
L 152.293981 168.538182 
L 153.073336 166.341818 
L 153.78184 164.145455 
L 154.410909 161.978662 
L 154.41978 161.949091 
L 155.005477 159.752727 
L 155.517962 157.556364 
L 155.957235 155.36 
L 156.323295 153.163636 
L 156.607273 151.033807 
L 156.61645 150.967273 
L 156.84366 148.770909 
L 156.995133 146.574545 
L 157.07087 144.378182 
L 157.07087 142.181818 
L 156.995133 139.985455 
L 156.84366 137.789091 
L 156.61645 135.592727 
L 156.607273 135.526193 
L 156.323295 133.396364 
L 155.957235 131.2 
L 155.517962 129.003636 
L 155.005477 126.807273 
L 154.41978 124.610909 
L 154.410909 124.581338 
L 153.78184 122.414545 
L 153.073336 120.218182 
L 152.293981 118.021818 
L 152.214545 117.81661 
L 151.467862 115.825455 
L 150.57559 113.629091 
L 150.018182 112.355016 
L 149.626908 111.432727 
L 148.628561 109.236364 
L 147.821818 107.572457 
L 147.57125 107.04 
L 146.473068 104.843636 
L 145.625455 103.242588 
L 145.319292 102.647273 
L 144.126981 100.450909 
L 143.429091 99.229602 
L 142.887393 98.254545 
L 141.606181 96.058182 
L 141.232727 95.447076 
L 140.290141 93.861818 
L 139.036364 91.844871 
L 138.927769 91.665455 
L 137.540592 89.469091 
L 136.84 88.404191 
L 136.114703 87.272727 
L 134.65046 85.076364 
L 134.643636 85.066507 
L 133.167744 82.88 
L 132.447273 81.850755 
L 131.650216 80.683636 
L 130.250909 78.705306 
L 130.100363 78.487273 
L 128.531531 76.290909 
L 128.054545 75.64467 
L 126.937014 74.094545 
L 125.858182 72.644865 
L 125.315139 71.898182 
L 123.667867 69.701818 
L 123.661818 69.693991 
L 122.008258 67.505455 
L 121.465455 66.807565 
L 120.325311 65.309091 
L 119.269091 63.959476 
L 118.620517 63.112727 
L 117.072727 61.146615 
L 116.895242 60.916364 
L 115.156454 58.72 
L 114.876364 58.375274 
L 113.402611 56.523636 
L 112.68 55.638437 
" style="fill:none;stroke:#df00df;stroke-width:1.5;"/>
    <path clip-path="url(#pb70165b854)" d="M 330.12 55.638437 
L 329.397389 56.523636 
L 327.923636 58.375274 
L 327.643546 58.72 
L 325.904758 60.916364 
L 325.727273 61.146615 
L 324.179483 63.112727 
L 323.530909 63.959476 
L 322.474689 65.309091 
L 321.334545 66.807565 
L 320.791742 67.505455 
L 319.138182 69.693991 
L 319.132133 69.701818 
L 317.484861 71.898182 
L 316.941818 72.644865 
L 315.862986 74.094545 
L 314.745455 75.64467 
L 314.268469 76.290909 
L 312.699637 78.487273 
L 312.549091 78.705306 
L 311.149784 80.683636 
L 310.352727 81.850755 
L 309.632256 82.88 
L 308.156364 85.066507 
L 308.14954 85.076364 
L 306.685297 87.272727 
L 305.96 88.404191 
L 305.259408 89.469091 
L 303.872231 91.665455 
L 303.763636 91.844871 
L 302.509859 93.861818 
L 301.567273 95.447076 
L 301.193819 96.058182 
L 299.912607 98.254545 
L 299.370909 99.229602 
L 298.673019 100.450909 
L 297.480708 102.647273 
L 297.174545 103.242588 
L 296.326932 104.843636 
L 295.22875 107.04 
L 294.978182 107.572457 
L 294.171439 109.236364 
L 293.173092 111.432727 
L 292.781818 112.355016 
L 292.22441 113.629091 
L 291.332138 115.825455 
L 290.585455 117.81661 
L 290.506019 118.021818 
L 289.726664 120.218182 
L 289.01816 122.414545 
L 288.389091 124.581338 
L 288.38022 124.610909 
L 287.794523 126.807273 
L 287.282038 129.003636 
L 286.842765 131.2 
L 286.476705 133.396364 
L 286.192727 135.526193 
L 286.18355 135.592727 
L 285.95634 137.789091 
L 285.804867 139.985455 
L 285.72913 142.181818 
L 285.72913 144.378182 
L 285.804867 146.574545 
L 285.95634 148.770909 
L 286.18355 150.967273 
L 286.192727 151.033807 
L 286.476705 153.163636 
L 286.842765 155.36 
L 287.282038 157.556364 
L 287.794523 159.752727 
L 288.38022 161.949091 
L 288.389091 161.978662 
L 289.01816 164.145455 
L 289.726664 166.341818 
L 290.506019 168.538182 
L 290.585455 168.74339 
L 291.332138 170.734545 
L 292.22441 172.930909 
L 292.781818 174.204984 
L 293.173092 175.127273 
L 294.171439 177.323636 
L 294.978182 178.987543 
L 295.22875 179.52 
L 296.326932 181.716364 
L 297.174545 183.317412 
L 297.480708 183.912727 
L 298.673019 186.109091 
L 299.370909 187.330398 
L 299.912607 188.305455 
L 301.193819 190.501818 
L 301.567273 191.112924 
L 302.509859 192.698182 
L 303.763636 194.715129 
L 303.872231 194.894545 
L 305.259408 197.090909 
L 305.96 198.155809 
L 306.685297 199.287273 
L 308.14954 201.483636 
L 308.156364 201.493493 
L 309.632256 203.68 
L 310.352727 204.709245 
L 311.149784 205.876364 
L 312.549091 207.854694 
L 312.699637 208.072727 
L 314.268469 210.269091 
L 314.745455 210.91533 
L 315.862986 212.465455 
L 316.941818 213.915135 
L 317.484861 214.661818 
L 319.132133 216.858182 
L 319.138182 216.866009 
L 320.791742 219.054545 
L 321.334545 219.752435 
L 322.474689 221.250909 
L 323.530909 222.600524 
L 324.179483 223.447273 
L 325.727273 225.413385 
L 325.904758 225.643636 
L 327.643546 227.84 
L 327.923636 228.184726 
L 329.397389 230.036364 
L 330.12 230.921563 
" style="fill:none;stroke:#df00df;stroke-width:1.5;"/>
   </g>
   <g id="LineCollection_87"/>
   <g id="LineCollection_88"/>
   <g id="LineCollection_89">
    <path clip-path="url(#pb70165b854)" d="M 309.041563 252 
L 308.156364 251.277389 
L 306.304726 249.803636 
L 305.96 249.523546 
L 303.763636 247.784758 
L 303.533385 247.607273 
L 301.567273 246.059483 
L 300.720524 245.410909 
L 299.370909 244.354689 
L 297.872435 243.214545 
L 297.174545 242.671742 
L 294.986009 241.018182 
L 294.978182 241.012133 
L 292.781818 239.364861 
L 292.035135 238.821818 
L 290.585455 237.742986 
L 289.03533 236.625455 
L 288.389091 236.148469 
L 286.192727 234.579637 
L 285.974694 234.429091 
L 283.996364 233.029784 
L 282.829245 232.232727 
L 281.8 231.512256 
L 279.613493 230.036364 
L 279.603636 230.02954 
L 277.407273 228.565297 
L 276.275809 227.84 
L 275.210909 227.139408 
L 273.014545 225.752231 
L 272.835129 225.643636 
L 270.818182 224.389859 
L 269.232924 223.447273 
L 268.621818 223.073819 
L 266.425455 221.792607 
L 265.450398 221.250909 
L 264.229091 220.553019 
L 262.032727 219.360708 
L 261.437412 219.054545 
L 259.836364 218.206932 
L 257.64 217.10875 
L 257.107543 216.858182 
L 255.443636 216.051439 
L 253.247273 215.053092 
L 252.324984 214.661818 
L 251.050909 214.10441 
L 248.854545 213.212138 
L 246.86339 212.465455 
L 246.658182 212.386019 
L 244.461818 211.606664 
L 242.265455 210.89816 
L 240.098662 210.269091 
L 240.069091 210.26022 
L 237.872727 209.674523 
L 235.676364 209.162038 
L 233.48 208.722765 
L 231.283636 208.356705 
L 229.153807 208.072727 
L 229.087273 208.06355 
L 226.890909 207.83634 
L 224.694545 207.684867 
L 222.498182 207.60913 
L 220.301818 207.60913 
L 218.105455 207.684867 
L 215.909091 207.83634 
L 213.712727 208.06355 
L 213.646193 208.072727 
L 211.516364 208.356705 
L 209.32 208.722765 
L 207.123636 209.162038 
L 204.927273 209.674523 
L 202.730909 210.26022 
L 202.701338 210.269091 
L 200.534545 210.89816 
L 198.338182 211.606664 
L 196.141818 212.386019 
L 195.93661 212.465455 
L 193.945455 213.212138 
L 191.749091 214.10441 
L 190.475016 214.661818 
L 189.552727 215.053092 
L 187.356364 216.051439 
L 185.692457 216.858182 
L 185.16 217.10875 
L 182.963636 218.206932 
L 181.362588 219.054545 
L 180.767273 219.360708 
L 178.570909 220.553019 
L 177.349602 221.250909 
L 176.374545 221.792607 
L 174.178182 223.073819 
L 173.567076 223.447273 
L 171.981818 224.389859 
L 169.964871 225.643636 
L 169.785455 225.752231 
L 167.589091 227.139408 
L 166.524191 227.84 
L 165.392727 228.565297 
L 163.196364 230.02954 
L 163.186507 230.036364 
L 161 231.512256 
L 159.970755 232.232727 
L 158.803636 233.029784 
L 156.825306 234.429091 
L 156.607273 234.579637 
L 154.410909 236.148469 
L 153.76467 236.625455 
L 152.214545 237.742986 
L 150.764865 238.821818 
L 150.018182 239.364861 
L 147.821818 241.012133 
L 147.813991 241.018182 
L 145.625455 242.671742 
L 144.927565 243.214545 
L 143.429091 244.354689 
L 142.079476 245.410909 
L 141.232727 246.059483 
L 139.266615 247.607273 
L 139.036364 247.784758 
L 136.84 249.523546 
L 136.495274 249.803636 
L 134.643636 251.277389 
L 133.758437 252 
" style="fill:none;stroke:#00dfdf;stroke-width:1.5;"/>
    <path clip-path="url(#pb70165b854)" d="M 133.758437 34.56 
L 134.643636 35.282611 
L 136.495274 36.756364 
L 136.84 37.036454 
L 139.036364 38.775242 
L 139.266615 38.952727 
L 141.232727 40.500517 
L 142.079476 41.149091 
L 143.429091 42.205311 
L 144.927565 43.345455 
L 145.625455 43.888258 
L 147.813991 45.541818 
L 147.821818 45.547867 
L 150.018182 47.195139 
L 150.764865 47.738182 
L 152.214545 48.817014 
L 153.76467 49.934545 
L 154.410909 50.411531 
L 156.607273 51.980363 
L 156.825306 52.130909 
L 158.803636 53.530216 
L 159.970755 54.327273 
L 161 55.047744 
L 163.186507 56.523636 
L 163.196364 56.53046 
L 165.392727 57.994703 
L 166.524191 58.72 
L 167.589091 59.420592 
L 169.785455 60.807769 
L 169.964871 60.916364 
L 171.981818 62.170141 
L 173.567076 63.112727 
L 174.178182 63.486181 
L 176.374545 64.767393 
L 177.349602 65.309091 
L 178.570909 66.006981 
L 180.767273 67.199292 
L 181.362588 67.505455 
L 182.963636 68.353068 
L 185.16 69.45125 
L 185.692457 69.701818 
L 187.356364 70.508561 
L 189.552727 71.506908 
L 190.475016 71.898182 
L 191.749091 72.45559 
L 193.945455 73.347862 
L 195.93661 74.094545 
L 196.141818 74.173981 
L 198.338182 74.953336 
L 200.534545 75.66184 
L 202.701338 76.290909 
L 202.730909 76.29978 
L 204.927273 76.885477 
L 207.123636 77.397962 
L 209.32 77.837235 
L 211.516364 78.203295 
L 213.646193 78.487273 
L 213.712727 78.49645 
L 215.909091 78.72366 
L 218.105455 78.875133 
L 220.301818 78.95087 
L 222.498182 78.95087 
L 224.694545 78.875133 
L 226.890909 78.72366 
L 229.087273 78.49645 
L 229.153807 78.487273 
L 231.283636 78.203295 
L 233.48 77.837235 
L 235.676364 77.397962 
L 237.872727 76.885477 
L 240.069091 76.29978 
L 240.098662 76.290909 
L 242.265455 75.66184 
L 244.461818 74.953336 
L 246.658182 74.173981 
L 246.86339 74.094545 
L 248.854545 73.347862 
L 251.050909 72.45559 
L 252.324984 71.898182 
L 253.247273 71.506908 
L 255.443636 70.508561 
L 257.107543 69.701818 
L 257.64 69.45125 
L 259.836364 68.353068 
L 261.437412 67.505455 
L 262.032727 67.199292 
L 264.229091 66.006981 
L 265.450398 65.309091 
L 266.425455 64.767393 
L 268.621818 63.486181 
L 269.232924 63.112727 
L 270.818182 62.170141 
L 272.835129 60.916364 
L 273.014545 60.807769 
L 275.210909 59.420592 
L 276.275809 58.72 
L 277.407273 57.994703 
L 279.603636 56.53046 
L 279.613493 56.523636 
L 281.8 55.047744 
L 282.829245 54.327273 
L 283.996364 53.530216 
L 285.974694 52.130909 
L 286.192727 51.980363 
L 288.389091 50.411531 
L 289.03533 49.934545 
L 290.585455 48.817014 
L 292.035135 47.738182 
L 292.781818 47.195139 
L 294.978182 45.547867 
L 294.986009 45.541818 
L 297.174545 43.888258 
L 297.872435 43.345455 
L 299.370909 42.205311 
L 300.720524 41.149091 
L 301.567273 40.500517 
L 303.533385 38.952727 
L 303.763636 38.775242 
L 305.96 37.036454 
L 306.304726 36.756364 
L 308.156364 35.282611 
L 309.041563 34.56 
" style="fill:none;stroke:#00dfdf;stroke-width:1.5;"/>
   </g>
   <g id="LineCollection_90"/>
   <g id="LineCollection_91"/>
   <g id="LineCollection_92">
    <path clip-path="url(#pb70165b854)" d="M 112.68 228.146114 
L 112.923642 227.84 
L 114.626944 225.643636 
L 114.876364 225.313324 
L 116.314778 223.447273 
L 117.072727 222.436674 
L 117.980973 221.250909 
L 119.269091 219.52115 
L 119.624116 219.054545 
L 121.247515 216.858182 
L 121.465455 216.554388 
L 122.853339 214.661818 
L 123.661818 213.524894 
L 124.43232 212.465455 
L 125.858182 210.44165 
L 125.982585 210.269091 
L 127.514932 208.072727 
L 128.054545 207.272611 
L 129.018621 205.876364 
L 130.250909 204.027931 
L 130.488521 203.68 
L 131.934906 201.483636 
L 132.447273 200.675674 
L 133.349734 199.287273 
L 134.643636 197.217028 
L 134.724482 197.090909 
L 136.07609 194.894545 
L 136.84 193.599221 
L 137.385366 192.698182 
L 138.656945 190.501818 
L 139.036364 189.81525 
L 139.893275 188.305455 
L 141.080498 186.109091 
L 141.232727 185.812645 
L 142.235462 183.912727 
L 143.333643 181.716364 
L 143.429091 181.51424 
L 144.397722 179.52 
L 145.401774 177.323636 
L 145.625455 176.801714 
L 146.364179 175.127273 
L 147.268564 172.930909 
L 147.821818 171.483936 
L 148.117033 170.734545 
L 148.91571 168.538182 
L 149.647831 166.341818 
L 150.018182 165.119662 
L 150.322622 164.145455 
L 150.940349 161.949091 
L 151.48944 159.752727 
L 151.969894 157.556364 
L 152.214545 156.251558 
L 152.387105 155.36 
L 152.741357 153.163636 
L 153.024759 150.967273 
L 153.23731 148.770909 
L 153.379011 146.574545 
L 153.449862 144.378182 
L 153.449862 142.181818 
L 153.379011 139.985455 
L 153.23731 137.789091 
L 153.024759 135.592727 
L 152.741357 133.396364 
L 152.387105 131.2 
L 152.214545 130.308442 
L 151.969894 129.003636 
L 151.48944 126.807273 
L 150.940349 124.610909 
L 150.322622 122.414545 
L 150.018182 121.440338 
L 149.647831 120.218182 
L 148.91571 118.021818 
L 148.117033 115.825455 
L 147.821818 115.076064 
L 147.268564 113.629091 
L 146.364179 111.432727 
L 145.625455 109.758286 
L 145.401774 109.236364 
L 144.397722 107.04 
L 143.429091 105.04576 
L 143.333643 104.843636 
L 142.235462 102.647273 
L 141.232727 100.747355 
L 141.080498 100.450909 
L 139.893275 98.254545 
L 139.036364 96.74475 
L 138.656945 96.058182 
L 137.385366 93.861818 
L 136.84 92.960779 
L 136.07609 91.665455 
L 134.724482 89.469091 
L 134.643636 89.342972 
L 133.349734 87.272727 
L 132.447273 85.884326 
L 131.934906 85.076364 
L 130.488521 82.88 
L 130.250909 82.532069 
L 129.018621 80.683636 
L 128.054545 79.287389 
L 127.514932 78.487273 
L 125.982585 76.290909 
L 125.858182 76.11835 
L 124.43232 74.094545 
L 123.661818 73.035106 
L 122.853339 71.898182 
L 121.465455 70.005612 
L 121.247515 69.701818 
L 119.624116 67.505455 
L 119.269091 67.03885 
L 117.980973 65.309091 
L 117.072727 64.123326 
L 116.314778 63.112727 
L 114.876364 61.246676 
L 114.626944 60.916364 
L 112.923642 58.72 
L 112.68 58.413886 
" style="fill:none;stroke:#ef00ef;stroke-width:1.5;"/>
    <path clip-path="url(#pb70165b854)" d="M 330.12 58.413886 
L 329.876358 58.72 
L 328.173056 60.916364 
L 327.923636 61.246676 
L 326.485222 63.112727 
L 325.727273 64.123326 
L 324.819027 65.309091 
L 323.530909 67.03885 
L 323.175884 67.505455 
L 321.552485 69.701818 
L 321.334545 70.005612 
L 319.946661 71.898182 
L 319.138182 73.035106 
L 318.36768 74.094545 
L 316.941818 76.11835 
L 316.817415 76.290909 
L 315.285068 78.487273 
L 314.745455 79.287389 
L 313.781379 80.683636 
L 312.549091 82.532069 
L 312.311479 82.88 
L 310.865094 85.076364 
L 310.352727 85.884326 
L 309.450266 87.272727 
L 308.156364 89.342972 
L 308.075518 89.469091 
L 306.72391 91.665455 
L 305.96 92.960779 
L 305.414634 93.861818 
L 304.143055 96.058182 
L 303.763636 96.74475 
L 302.906725 98.254545 
L 301.719502 100.450909 
L 301.567273 100.747355 
L 300.564538 102.647273 
L 299.466357 104.843636 
L 299.370909 105.04576 
L 298.402278 107.04 
L 297.398226 109.236364 
L 297.174545 109.758286 
L 296.435821 111.432727 
L 295.531436 113.629091 
L 294.978182 115.076064 
L 294.682967 115.825455 
L 293.88429 118.021818 
L 293.152169 120.218182 
L 292.781818 121.440338 
L 292.477378 122.414545 
L 291.859651 124.610909 
L 291.31056 126.807273 
L 290.830106 129.003636 
L 290.585455 130.308442 
L 290.412895 131.2 
L 290.058643 133.396364 
L 289.775241 135.592727 
L 289.56269 137.789091 
L 289.420989 139.985455 
L 289.350138 142.181818 
L 289.350138 144.378182 
L 289.420989 146.574545 
L 289.56269 148.770909 
L 289.775241 150.967273 
L 290.058643 153.163636 
L 290.412895 155.36 
L 290.585455 156.251558 
L 290.830106 157.556364 
L 291.31056 159.752727 
L 291.859651 161.949091 
L 292.477378 164.145455 
L 292.781818 165.119662 
L 293.152169 166.341818 
L 293.88429 168.538182 
L 294.682967 170.734545 
L 294.978182 171.483936 
L 295.531436 172.930909 
L 296.435821 175.127273 
L 297.174545 176.801714 
L 297.398226 177.323636 
L 298.402278 179.52 
L 299.370909 181.51424 
L 299.466357 181.716364 
L 300.564538 183.912727 
L 301.567273 185.812645 
L 301.719502 186.109091 
L 302.906725 188.305455 
L 303.763636 189.81525 
L 304.143055 190.501818 
L 305.414634 192.698182 
L 305.96 193.599221 
L 306.72391 194.894545 
L 308.075518 197.090909 
L 308.156364 197.217028 
L 309.450266 199.287273 
L 310.352727 200.675674 
L 310.865094 201.483636 
L 312.311479 203.68 
L 312.549091 204.027931 
L 313.781379 205.876364 
L 314.745455 207.272611 
L 315.285068 208.072727 
L 316.817415 210.269091 
L 316.941818 210.44165 
L 318.36768 212.465455 
L 319.138182 213.524894 
L 319.946661 214.661818 
L 321.334545 216.554388 
L 321.552485 216.858182 
L 323.175884 219.054545 
L 323.530909 219.52115 
L 324.819027 221.250909 
L 325.727273 222.436674 
L 326.485222 223.447273 
L 327.923636 225.313324 
L 328.173056 225.643636 
L 329.876358 227.84 
L 330.12 228.146114 
" style="fill:none;stroke:#ef00ef;stroke-width:1.5;"/>
   </g>
   <g id="LineCollection_93"/>
   <g id="LineCollection_94"/>
   <g id="LineCollection_95">
    <path clip-path="url(#pb70165b854)" d="M 306.266114 252 
L 305.96 251.756358 
L 303.763636 250.053056 
L 303.433324 249.803636 
L 301.567273 248.365222 
L 300.556674 247.607273 
L 299.370909 246.699027 
L 297.64115 245.410909 
L 297.174545 245.055884 
L 294.978182 243.432485 
L 294.674388 243.214545 
L 292.781818 241.826661 
L 291.644894 241.018182 
L 290.585455 240.24768 
L 288.56165 238.821818 
L 288.389091 238.697415 
L 286.192727 237.165068 
L 285.392611 236.625455 
L 283.996364 235.661379 
L 282.147931 234.429091 
L 281.8 234.191479 
L 279.603636 232.745094 
L 278.795674 232.232727 
L 277.407273 231.330266 
L 275.337028 230.036364 
L 275.210909 229.955518 
L 273.014545 228.60391 
L 271.719221 227.84 
L 270.818182 227.294634 
L 268.621818 226.023055 
L 267.93525 225.643636 
L 266.425455 224.786725 
L 264.229091 223.599502 
L 263.932645 223.447273 
L 262.032727 222.444538 
L 259.836364 221.346357 
L 259.63424 221.250909 
L 257.64 220.282278 
L 255.443636 219.278226 
L 254.921714 219.054545 
L 253.247273 218.315821 
L 251.050909 217.411436 
L 249.603936 216.858182 
L 248.854545 216.562967 
L 246.658182 215.76429 
L 244.461818 215.032169 
L 243.239662 214.661818 
L 242.265455 214.357378 
L 240.069091 213.739651 
L 237.872727 213.19056 
L 235.676364 212.710106 
L 234.371558 212.465455 
L 233.48 212.292895 
L 231.283636 211.938643 
L 229.087273 211.655241 
L 226.890909 211.44269 
L 224.694545 211.300989 
L 222.498182 211.230138 
L 220.301818 211.230138 
L 218.105455 211.300989 
L 215.909091 211.44269 
L 213.712727 211.655241 
L 211.516364 211.938643 
L 209.32 212.292895 
L 208.428442 212.465455 
L 207.123636 212.710106 
L 204.927273 213.19056 
L 202.730909 213.739651 
L 200.534545 214.357378 
L 199.560338 214.661818 
L 198.338182 215.032169 
L 196.141818 215.76429 
L 193.945455 216.562967 
L 193.196064 216.858182 
L 191.749091 217.411436 
L 189.552727 218.315821 
L 187.878286 219.054545 
L 187.356364 219.278226 
L 185.16 220.282278 
L 183.16576 221.250909 
L 182.963636 221.346357 
L 180.767273 222.444538 
L 178.867355 223.447273 
L 178.570909 223.599502 
L 176.374545 224.786725 
L 174.86475 225.643636 
L 174.178182 226.023055 
L 171.981818 227.294634 
L 171.080779 227.84 
L 169.785455 228.60391 
L 167.589091 229.955518 
L 167.462972 230.036364 
L 165.392727 231.330266 
L 164.004326 232.232727 
L 163.196364 232.745094 
L 161 234.191479 
L 160.652069 234.429091 
L 158.803636 235.661379 
L 157.407389 236.625455 
L 156.607273 237.165068 
L 154.410909 238.697415 
L 154.23835 238.821818 
L 152.214545 240.24768 
L 151.155106 241.018182 
L 150.018182 241.826661 
L 148.125612 243.214545 
L 147.821818 243.432485 
L 145.625455 245.055884 
L 145.15885 245.410909 
L 143.429091 246.699027 
L 142.243326 247.607273 
L 141.232727 248.365222 
L 139.366676 249.803636 
L 139.036364 250.053056 
L 136.84 251.756358 
L 136.533886 252 
" style="fill:none;stroke:#00efef;stroke-width:1.5;"/>
    <path clip-path="url(#pb70165b854)" d="M 136.533886 34.56 
L 136.84 34.803642 
L 139.036364 36.506944 
L 139.366676 36.756364 
L 141.232727 38.194778 
L 142.243326 38.952727 
L 143.429091 39.860973 
L 145.15885 41.149091 
L 145.625455 41.504116 
L 147.821818 43.127515 
L 148.125612 43.345455 
L 150.018182 44.733339 
L 151.155106 45.541818 
L 152.214545 46.31232 
L 154.23835 47.738182 
L 154.410909 47.862585 
L 156.607273 49.394932 
L 157.407389 49.934545 
L 158.803636 50.898621 
L 160.652069 52.130909 
L 161 52.368521 
L 163.196364 53.814906 
L 164.004326 54.327273 
L 165.392727 55.229734 
L 167.462972 56.523636 
L 167.589091 56.604482 
L 169.785455 57.95609 
L 171.080779 58.72 
L 171.981818 59.265366 
L 174.178182 60.536945 
L 174.86475 60.916364 
L 176.374545 61.773275 
L 178.570909 62.960498 
L 178.867355 63.112727 
L 180.767273 64.115462 
L 182.963636 65.213643 
L 183.16576 65.309091 
L 185.16 66.277722 
L 187.356364 67.281774 
L 187.878286 67.505455 
L 189.552727 68.244179 
L 191.749091 69.148564 
L 193.196064 69.701818 
L 193.945455 69.997033 
L 196.141818 70.79571 
L 198.338182 71.527831 
L 199.560338 71.898182 
L 200.534545 72.202622 
L 202.730909 72.820349 
L 204.927273 73.36944 
L 207.123636 73.849894 
L 208.428442 74.094545 
L 209.32 74.267105 
L 211.516364 74.621357 
L 213.712727 74.904759 
L 215.909091 75.11731 
L 218.105455 75.259011 
L 220.301818 75.329862 
L 222.498182 75.329862 
L 224.694545 75.259011 
L 226.890909 75.11731 
L 229.087273 74.904759 
L 231.283636 74.621357 
L 233.48 74.267105 
L 234.371558 74.094545 
L 235.676364 73.849894 
L 237.872727 73.36944 
L 240.069091 72.820349 
L 242.265455 72.202622 
L 243.239662 71.898182 
L 244.461818 71.527831 
L 246.658182 70.79571 
L 248.854545 69.997033 
L 249.603936 69.701818 
L 251.050909 69.148564 
L 253.247273 68.244179 
L 254.921714 67.505455 
L 255.443636 67.281774 
L 257.64 66.277722 
L 259.63424 65.309091 
L 259.836364 65.213643 
L 262.032727 64.115462 
L 263.932645 63.112727 
L 264.229091 62.960498 
L 266.425455 61.773275 
L 267.93525 60.916364 
L 268.621818 60.536945 
L 270.818182 59.265366 
L 271.719221 58.72 
L 273.014545 57.95609 
L 275.210909 56.604482 
L 275.337028 56.523636 
L 277.407273 55.229734 
L 278.795674 54.327273 
L 279.603636 53.814906 
L 281.8 52.368521 
L 282.147931 52.130909 
L 283.996364 50.898621 
L 285.392611 49.934545 
L 286.192727 49.394932 
L 288.389091 47.862585 
L 288.56165 47.738182 
L 290.585455 46.31232 
L 291.644894 45.541818 
L 292.781818 44.733339 
L 294.674388 43.345455 
L 294.978182 43.127515 
L 297.174545 41.504116 
L 297.64115 41.149091 
L 299.370909 39.860973 
L 300.556674 38.952727 
L 301.567273 38.194778 
L 303.433324 36.756364 
L 303.763636 36.506944 
L 305.96 34.803642 
L 306.266114 34.56 
" style="fill:none;stroke:#00efef;stroke-width:1.5;"/>
   </g>
   <g id="LineCollection_96"/>
  </g>
 </g>
 <defs>
  <clipPath id="pb70165b854">
   <rect height="217.44" width="217.44" x="112.68" y="34.56"/>
  </clipPath>
 </defs>
</svg>
