<?xml version="1.0" encoding="utf-8" standalone="no"?>
<!DOCTYPE svg PUBLIC "-//W3C//DTD SVG 1.1//EN"
  "http://www.w3.org/Graphics/SVG/1.1/DTD/svg11.dtd">
<svg height="288pt" version="1.1" viewBox="0 0 432 288" width="432pt" xmlns="http://www.w3.org/2000/svg" xmlns:xlink="http://www.w3.org/1999/xlink">
 <metadata>
  <rdf:RDF xmlns:cc="http://creativecommons.org/ns#" xmlns:dc="http://purl.org/dc/elements/1.1/" xmlns:rdf="http://www.w3.org/1999/02/22-rdf-syntax-ns#">
   <cc:Work>
    <dc:type rdf:resource="http://purl.org/dc/dcmitype/StillImage"/>
    <dc:date>2021-09-17T13:13:35.462030</dc:date>
    <dc:format>image/svg+xml</dc:format>
    <dc:creator>
     <cc:Agent>
      <dc:title>Matplotlib v3.4.3, https://matplotlib.org/</dc:title>
     </cc:Agent>
    </dc:creator>
   </cc:Work>
  </rdf:RDF>
 </metadata>
 <defs>
  <style type="text/css">*{stroke-linecap:butt;stroke-linejoin:round;}</style>
 </defs>
 <g id="figure_1">
  <g id="patch_1">
   <path d="M 0 288 
L 432 288 
L 432 0 
L 0 0 
z
" style="fill:none;"/>
  </g>
  <g id="axes_1">
   <g id="LineCollection_1"/>
   <g id="LineCollection_2">
    <path clip-path="url(#pe503837bf3)" d="M 185.16 153.49968 
L 184.378503 153.163636 
L 182.963636 152.403145 
L 181.140306 150.967273 
L 180.767273 150.575588 
L 179.462686 148.770909 
L 178.570909 146.920473 
L 178.436568 146.574545 
L 178.01009 144.378182 
L 178.01009 142.181818 
L 178.436568 139.985455 
L 178.570909 139.639527 
L 179.462686 137.789091 
L 180.767273 135.984412 
L 181.140306 135.592727 
L 182.963636 134.156855 
L 184.378503 133.396364 
L 185.16 133.06032 
L 187.356364 132.555156 
L 189.552727 132.489265 
L 191.749091 132.862647 
L 193.191568 133.396364 
L 193.945455 133.745036 
L 196.141818 135.309945 
L 196.435617 135.592727 
L 198.14707 137.789091 
L 198.338182 138.156982 
L 199.092191 139.985455 
L 199.54505 142.181818 
L 199.54505 144.378182 
L 199.092191 146.574545 
L 198.338182 148.403018 
L 198.14707 148.770909 
L 196.435617 150.967273 
L 196.141818 151.250055 
L 193.945455 152.814964 
L 193.191568 153.163636 
L 191.749091 153.697353 
L 189.552727 154.070735 
L 187.356364 154.004844 
L 185.16 153.49968 
" style="fill:none;stroke:#2a2a2a;stroke-width:1.5;"/>
   </g>
   <g id="LineCollection_3"/>
   <g id="LineCollection_4"/>
   <g id="LineCollection_5">
    <path clip-path="url(#pe503837bf3)" d="M 251.050909 153.697353 
L 249.608432 153.163636 
L 248.854545 152.814964 
L 246.658182 151.250055 
L 246.364383 150.967273 
L 244.65293 148.770909 
L 244.461818 148.403018 
L 243.707809 146.574545 
L 243.25495 144.378182 
L 243.25495 142.181818 
L 243.707809 139.985455 
L 244.461818 138.156982 
L 244.65293 137.789091 
L 246.364383 135.592727 
L 246.658182 135.309945 
L 248.854545 133.745036 
L 249.608432 133.396364 
L 251.050909 132.862647 
L 253.247273 132.489265 
L 255.443636 132.555156 
L 257.64 133.06032 
L 258.421497 133.396364 
L 259.836364 134.156855 
L 261.659694 135.592727 
L 262.032727 135.984412 
L 263.337314 137.789091 
L 264.229091 139.639527 
L 264.363432 139.985455 
L 264.78991 142.181818 
L 264.78991 144.378182 
L 264.363432 146.574545 
L 264.229091 146.920473 
L 263.337314 148.770909 
L 262.032727 150.575588 
L 261.659694 150.967273 
L 259.836364 152.403145 
L 258.421497 153.163636 
L 257.64 153.49968 
L 255.443636 154.004844 
L 253.247273 154.070735 
L 251.050909 153.697353 
" style="fill:none;stroke:#2a2a2a;stroke-width:1.5;"/>
   </g>
   <g id="LineCollection_6"/>
   <g id="LineCollection_7"/>
   <g id="LineCollection_8">
    <path clip-path="url(#pe503837bf3)" d="M 185.16 157.581011 
L 185.079754 157.556364 
L 182.963636 156.798088 
L 180.767273 155.644997 
L 180.355228 155.36 
L 178.570909 153.879015 
L 177.876367 153.163636 
L 176.374545 151.230041 
L 176.203639 150.967273 
L 175.132242 148.770909 
L 174.417977 146.574545 
L 174.178182 145.099802 
L 174.077256 144.378182 
L 174.077256 142.181818 
L 174.178182 141.460198 
L 174.417977 139.985455 
L 175.132242 137.789091 
L 176.203639 135.592727 
L 176.374545 135.329959 
L 177.876367 133.396364 
L 178.570909 132.680985 
L 180.355228 131.2 
L 180.767273 130.915003 
L 182.963636 129.761912 
L 185.079754 129.003636 
L 185.16 128.978989 
L 187.356364 128.618158 
L 189.552727 128.571093 
L 191.749091 128.837795 
L 192.376601 129.003636 
L 193.945455 129.487366 
L 196.141818 130.530639 
L 197.184978 131.2 
L 198.338182 132.087967 
L 199.687044 133.396364 
L 200.534545 134.423959 
L 201.333704 135.592727 
L 202.460044 137.789091 
L 202.730909 138.581372 
L 203.14086 139.985455 
L 203.461497 142.181818 
L 203.461497 144.378182 
L 203.14086 146.574545 
L 202.730909 147.978628 
L 202.460044 148.770909 
L 201.333704 150.967273 
L 200.534545 152.136041 
L 199.687044 153.163636 
L 198.338182 154.472033 
L 197.184978 155.36 
L 196.141818 156.029361 
L 193.945455 157.072634 
L 192.376601 157.556364 
L 191.749091 157.722205 
L 189.552727 157.988907 
L 187.356364 157.941842 
L 185.16 157.581011 
" style="fill:none;stroke:#3a3a3a;stroke-width:1.5;"/>
   </g>
   <g id="LineCollection_9"/>
   <g id="LineCollection_10"/>
   <g id="LineCollection_11">
    <path clip-path="url(#pe503837bf3)" d="M 251.050909 157.722205 
L 250.423399 157.556364 
L 248.854545 157.072634 
L 246.658182 156.029361 
L 245.615022 155.36 
L 244.461818 154.472033 
L 243.112956 153.163636 
L 242.265455 152.136041 
L 241.466296 150.967273 
L 240.339956 148.770909 
L 240.069091 147.978628 
L 239.65914 146.574545 
L 239.338503 144.378182 
L 239.338503 142.181818 
L 239.65914 139.985455 
L 240.069091 138.581372 
L 240.339956 137.789091 
L 241.466296 135.592727 
L 242.265455 134.423959 
L 243.112956 133.396364 
L 244.461818 132.087967 
L 245.615022 131.2 
L 246.658182 130.530639 
L 248.854545 129.487366 
L 250.423399 129.003636 
L 251.050909 128.837795 
L 253.247273 128.571093 
L 255.443636 128.618158 
L 257.64 128.978989 
L 257.720246 129.003636 
L 259.836364 129.761912 
L 262.032727 130.915003 
L 262.444772 131.2 
L 264.229091 132.680985 
L 264.923633 133.396364 
L 266.425455 135.329959 
L 266.596361 135.592727 
L 267.667758 137.789091 
L 268.382023 139.985455 
L 268.621818 141.460198 
L 268.722744 142.181818 
L 268.722744 144.378182 
L 268.621818 145.099802 
L 268.382023 146.574545 
L 267.667758 148.770909 
L 266.596361 150.967273 
L 266.425455 151.230041 
L 264.923633 153.163636 
L 264.229091 153.879015 
L 262.444772 155.36 
L 262.032727 155.644997 
L 259.836364 156.798088 
L 257.720246 157.556364 
L 257.64 157.581011 
L 255.443636 157.941842 
L 253.247273 157.988907 
L 251.050909 157.722205 
" style="fill:none;stroke:#3a3a3a;stroke-width:1.5;"/>
   </g>
   <g id="LineCollection_12"/>
   <g id="LineCollection_13"/>
   <g id="LineCollection_14">
    <path clip-path="url(#pe503837bf3)" d="M 180.767273 160.086965 
L 180.122958 159.752727 
L 178.570909 158.832584 
L 176.836241 157.556364 
L 176.374545 157.160075 
L 174.618375 155.36 
L 174.178182 154.818563 
L 173.020891 153.163636 
L 171.981818 151.306294 
L 171.815427 150.967273 
L 171.00695 148.770909 
L 170.467965 146.574545 
L 170.198472 144.378182 
L 170.198472 142.181818 
L 170.467965 139.985455 
L 171.00695 137.789091 
L 171.815427 135.592727 
L 171.981818 135.253706 
L 173.020891 133.396364 
L 174.178182 131.741437 
L 174.618375 131.2 
L 176.374545 129.399925 
L 176.836241 129.003636 
L 178.570909 127.727416 
L 180.122958 126.807273 
L 180.767273 126.473035 
L 182.963636 125.608216 
L 185.16 125.017944 
L 187.356364 124.702216 
L 189.552727 124.661035 
L 191.749091 124.894398 
L 193.945455 125.402307 
L 196.141818 126.184762 
L 197.435347 126.807273 
L 198.338182 127.303832 
L 200.534545 128.825598 
L 200.747583 129.003636 
L 202.730909 130.93738 
L 202.960942 131.2 
L 204.564127 133.396364 
L 204.927273 134.018251 
L 205.729554 135.592727 
L 206.568928 137.789091 
L 207.123636 139.96632 
L 207.12796 139.985455 
L 207.376137 142.181818 
L 207.376137 144.378182 
L 207.12796 146.574545 
L 207.123636 146.59368 
L 206.568928 148.770909 
L 205.729554 150.967273 
L 204.927273 152.541749 
L 204.564127 153.163636 
L 202.960942 155.36 
L 202.730909 155.62262 
L 200.747583 157.556364 
L 200.534545 157.734402 
L 198.338182 159.256168 
L 197.435347 159.752727 
L 196.141818 160.375238 
L 193.945455 161.157693 
L 191.749091 161.665602 
L 189.552727 161.898965 
L 187.356364 161.857784 
L 185.16 161.542056 
L 182.963636 160.951784 
L 180.767273 160.086965 
" style="fill:none;stroke:#494949;stroke-width:1.5;"/>
   </g>
   <g id="LineCollection_15"/>
   <g id="LineCollection_16"/>
   <g id="LineCollection_17">
    <path clip-path="url(#pe503837bf3)" d="M 246.658182 160.375238 
L 245.364653 159.752727 
L 244.461818 159.256168 
L 242.265455 157.734402 
L 242.052417 157.556364 
L 240.069091 155.62262 
L 239.839058 155.36 
L 238.235873 153.163636 
L 237.872727 152.541749 
L 237.070446 150.967273 
L 236.231072 148.770909 
L 235.676364 146.59368 
L 235.67204 146.574545 
L 235.423863 144.378182 
L 235.423863 142.181818 
L 235.67204 139.985455 
L 235.676364 139.96632 
L 236.231072 137.789091 
L 237.070446 135.592727 
L 237.872727 134.018251 
L 238.235873 133.396364 
L 239.839058 131.2 
L 240.069091 130.93738 
L 242.052417 129.003636 
L 242.265455 128.825598 
L 244.461818 127.303832 
L 245.364653 126.807273 
L 246.658182 126.184762 
L 248.854545 125.402307 
L 251.050909 124.894398 
L 253.247273 124.661035 
L 255.443636 124.702216 
L 257.64 125.017944 
L 259.836364 125.608216 
L 262.032727 126.473035 
L 262.677042 126.807273 
L 264.229091 127.727416 
L 265.963759 129.003636 
L 266.425455 129.399925 
L 268.181625 131.2 
L 268.621818 131.741437 
L 269.779109 133.396364 
L 270.818182 135.253706 
L 270.984573 135.592727 
L 271.79305 137.789091 
L 272.332035 139.985455 
L 272.601528 142.181818 
L 272.601528 144.378182 
L 272.332035 146.574545 
L 271.79305 148.770909 
L 270.984573 150.967273 
L 270.818182 151.306294 
L 269.779109 153.163636 
L 268.621818 154.818563 
L 268.181625 155.36 
L 266.425455 157.160075 
L 265.963759 157.556364 
L 264.229091 158.832584 
L 262.677042 159.752727 
L 262.032727 160.086965 
L 259.836364 160.951784 
L 257.64 161.542056 
L 255.443636 161.857784 
L 253.247273 161.898965 
L 251.050909 161.665602 
L 248.854545 161.157693 
L 246.658182 160.375238 
" style="fill:none;stroke:#494949;stroke-width:1.5;"/>
   </g>
   <g id="LineCollection_18"/>
   <g id="LineCollection_19"/>
   <g id="LineCollection_20">
    <path clip-path="url(#pe503837bf3)" d="M 180.767273 164.317125 
L 180.353608 164.145455 
L 178.570909 163.323432 
L 176.374545 162.066624 
L 176.202546 161.949091 
L 174.178182 160.392861 
L 173.461948 159.752727 
L 171.981818 158.24088 
L 171.39389 157.556364 
L 169.785455 155.371572 
L 169.777866 155.36 
L 168.577667 153.163636 
L 167.617508 150.967273 
L 167.589091 150.880599 
L 166.965537 148.770909 
L 166.532756 146.574545 
L 166.316366 144.378182 
L 166.316366 142.181818 
L 166.532756 139.985455 
L 166.965537 137.789091 
L 167.589091 135.679401 
L 167.617508 135.592727 
L 168.577667 133.396364 
L 169.777866 131.2 
L 169.785455 131.188428 
L 171.39389 129.003636 
L 171.981818 128.31912 
L 173.461948 126.807273 
L 174.178182 126.167139 
L 176.202546 124.610909 
L 176.374545 124.493376 
L 178.570909 123.236568 
L 180.353608 122.414545 
L 180.767273 122.242875 
L 182.963636 121.55102 
L 185.16 121.078802 
L 187.356364 120.82622 
L 189.552727 120.793275 
L 191.749091 120.979966 
L 193.945455 121.386293 
L 196.141818 122.012257 
L 197.186725 122.414545 
L 198.338182 122.907113 
L 200.534545 124.090709 
L 201.334853 124.610909 
L 202.730909 125.631775 
L 204.103753 126.807273 
L 204.927273 127.613146 
L 206.167201 129.003636 
L 207.123636 130.254973 
L 207.764333 131.2 
L 209.005216 133.396364 
L 209.32 134.092823 
L 209.929098 135.592727 
L 210.598041 137.789091 
L 211.044004 139.985455 
L 211.266985 142.181818 
L 211.266985 144.378182 
L 211.044004 146.574545 
L 210.598041 148.770909 
L 209.929098 150.967273 
L 209.32 152.467177 
L 209.005216 153.163636 
L 207.764333 155.36 
L 207.123636 156.305027 
L 206.167201 157.556364 
L 204.927273 158.946854 
L 204.103753 159.752727 
L 202.730909 160.928225 
L 201.334853 161.949091 
L 200.534545 162.469291 
L 198.338182 163.652887 
L 197.186725 164.145455 
L 196.141818 164.547743 
L 193.945455 165.173707 
L 191.749091 165.580034 
L 189.552727 165.766725 
L 187.356364 165.73378 
L 185.16 165.481198 
L 182.963636 165.00898 
L 180.767273 164.317125 
" style="fill:none;stroke:#585858;stroke-width:1.5;"/>
   </g>
   <g id="LineCollection_21"/>
   <g id="LineCollection_22"/>
   <g id="LineCollection_23">
    <path clip-path="url(#pe503837bf3)" d="M 246.658182 164.547743 
L 245.613275 164.145455 
L 244.461818 163.652887 
L 242.265455 162.469291 
L 241.465147 161.949091 
L 240.069091 160.928225 
L 238.696247 159.752727 
L 237.872727 158.946854 
L 236.632799 157.556364 
L 235.676364 156.305027 
L 235.035667 155.36 
L 233.794784 153.163636 
L 233.48 152.467177 
L 232.870902 150.967273 
L 232.201959 148.770909 
L 231.755996 146.574545 
L 231.533015 144.378182 
L 231.533015 142.181818 
L 231.755996 139.985455 
L 232.201959 137.789091 
L 232.870902 135.592727 
L 233.48 134.092823 
L 233.794784 133.396364 
L 235.035667 131.2 
L 235.676364 130.254973 
L 236.632799 129.003636 
L 237.872727 127.613146 
L 238.696247 126.807273 
L 240.069091 125.631775 
L 241.465147 124.610909 
L 242.265455 124.090709 
L 244.461818 122.907113 
L 245.613275 122.414545 
L 246.658182 122.012257 
L 248.854545 121.386293 
L 251.050909 120.979966 
L 253.247273 120.793275 
L 255.443636 120.82622 
L 257.64 121.078802 
L 259.836364 121.55102 
L 262.032727 122.242875 
L 262.446392 122.414545 
L 264.229091 123.236568 
L 266.425455 124.493376 
L 266.597454 124.610909 
L 268.621818 126.167139 
L 269.338052 126.807273 
L 270.818182 128.31912 
L 271.40611 129.003636 
L 273.014545 131.188428 
L 273.022134 131.2 
L 274.222333 133.396364 
L 275.182492 135.592727 
L 275.210909 135.679401 
L 275.834463 137.789091 
L 276.267244 139.985455 
L 276.483634 142.181818 
L 276.483634 144.378182 
L 276.267244 146.574545 
L 275.834463 148.770909 
L 275.210909 150.880599 
L 275.182492 150.967273 
L 274.222333 153.163636 
L 273.022134 155.36 
L 273.014545 155.371572 
L 271.40611 157.556364 
L 270.818182 158.24088 
L 269.338052 159.752727 
L 268.621818 160.392861 
L 266.597454 161.949091 
L 266.425455 162.066624 
L 264.229091 163.323432 
L 262.446392 164.145455 
L 262.032727 164.317125 
L 259.836364 165.00898 
L 257.64 165.481198 
L 255.443636 165.73378 
L 253.247273 165.766725 
L 251.050909 165.580034 
L 248.854545 165.173707 
L 246.658182 164.547743 
" style="fill:none;stroke:#585858;stroke-width:1.5;"/>
   </g>
   <g id="LineCollection_24"/>
   <g id="LineCollection_25"/>
   <g id="LineCollection_26">
    <path clip-path="url(#pe503837bf3)" d="M 182.963636 169.017927 
L 181.136037 168.538182 
L 180.767273 168.432581 
L 178.570909 167.603953 
L 176.374545 166.575656 
L 175.9563 166.341818 
L 174.178182 165.248276 
L 172.635775 164.145455 
L 171.981818 163.625922 
L 170.130102 161.949091 
L 169.785455 161.597981 
L 168.172118 159.752727 
L 167.589091 158.990628 
L 166.599943 157.556364 
L 165.392727 155.514156 
L 165.309773 155.36 
L 164.324857 153.163636 
L 163.536924 150.967273 
L 163.196364 149.701525 
L 162.966582 148.770909 
L 162.605041 146.574545 
L 162.42427 144.378182 
L 162.42427 142.181818 
L 162.605041 139.985455 
L 162.966582 137.789091 
L 163.196364 136.858475 
L 163.536924 135.592727 
L 164.324857 133.396364 
L 165.309773 131.2 
L 165.392727 131.045844 
L 166.599943 129.003636 
L 167.589091 127.569372 
L 168.172118 126.807273 
L 169.785455 124.962019 
L 170.130102 124.610909 
L 171.981818 122.934078 
L 172.635775 122.414545 
L 174.178182 121.311724 
L 175.9563 120.218182 
L 176.374545 119.984344 
L 178.570909 118.956047 
L 180.767273 118.127419 
L 181.136037 118.021818 
L 182.963636 117.542073 
L 185.16 117.148558 
L 187.356364 116.938073 
L 189.552727 116.910619 
L 191.749091 117.066195 
L 193.945455 117.404801 
L 196.141818 117.926437 
L 196.43911 118.021818 
L 198.338182 118.686493 
L 200.534545 119.65489 
L 201.593727 120.218182 
L 202.730909 120.883433 
L 204.927273 122.387943 
L 204.961162 122.414545 
L 207.123636 124.300704 
L 207.439099 124.610909 
L 209.32 126.691655 
L 209.413902 126.807273 
L 210.97477 129.003636 
L 211.516364 129.892753 
L 212.239265 131.2 
L 213.251414 133.396364 
L 213.712727 134.647675 
L 214.031732 135.592727 
L 214.587774 137.789091 
L 214.958468 139.985455 
L 215.143815 142.181818 
L 215.143815 144.378182 
L 214.958468 146.574545 
L 214.587774 148.770909 
L 214.031732 150.967273 
L 213.712727 151.912325 
L 213.251414 153.163636 
L 212.239265 155.36 
L 211.516364 156.667247 
L 210.97477 157.556364 
L 209.413902 159.752727 
L 209.32 159.868345 
L 207.439099 161.949091 
L 207.123636 162.259296 
L 204.961162 164.145455 
L 204.927273 164.172057 
L 202.730909 165.676567 
L 201.593727 166.341818 
L 200.534545 166.90511 
L 198.338182 167.873507 
L 196.43911 168.538182 
L 196.141818 168.633563 
L 193.945455 169.155199 
L 191.749091 169.493805 
L 189.552727 169.649381 
L 187.356364 169.621927 
L 185.16 169.411442 
L 182.963636 169.017927 
" style="fill:none;stroke:#676767;stroke-width:1.5;"/>
   </g>
   <g id="LineCollection_27"/>
   <g id="LineCollection_28"/>
   <g id="LineCollection_29">
    <path clip-path="url(#pe503837bf3)" d="M 246.658182 168.633563 
L 246.36089 168.538182 
L 244.461818 167.873507 
L 242.265455 166.90511 
L 241.206273 166.341818 
L 240.069091 165.676567 
L 237.872727 164.172057 
L 237.838838 164.145455 
L 235.676364 162.259296 
L 235.360901 161.949091 
L 233.48 159.868345 
L 233.386098 159.752727 
L 231.82523 157.556364 
L 231.283636 156.667247 
L 230.560735 155.36 
L 229.548586 153.163636 
L 229.087273 151.912325 
L 228.768268 150.967273 
L 228.212226 148.770909 
L 227.841532 146.574545 
L 227.656185 144.378182 
L 227.656185 142.181818 
L 227.841532 139.985455 
L 228.212226 137.789091 
L 228.768268 135.592727 
L 229.087273 134.647675 
L 229.548586 133.396364 
L 230.560735 131.2 
L 231.283636 129.892753 
L 231.82523 129.003636 
L 233.386098 126.807273 
L 233.48 126.691655 
L 235.360901 124.610909 
L 235.676364 124.300704 
L 237.838838 122.414545 
L 237.872727 122.387943 
L 240.069091 120.883433 
L 241.206273 120.218182 
L 242.265455 119.65489 
L 244.461818 118.686493 
L 246.36089 118.021818 
L 246.658182 117.926437 
L 248.854545 117.404801 
L 251.050909 117.066195 
L 253.247273 116.910619 
L 255.443636 116.938073 
L 257.64 117.148558 
L 259.836364 117.542073 
L 261.663963 118.021818 
L 262.032727 118.127419 
L 264.229091 118.956047 
L 266.425455 119.984344 
L 266.8437 120.218182 
L 268.621818 121.311724 
L 270.164225 122.414545 
L 270.818182 122.934078 
L 272.669898 124.610909 
L 273.014545 124.962019 
L 274.627882 126.807273 
L 275.210909 127.569372 
L 276.200057 129.003636 
L 277.407273 131.045844 
L 277.490227 131.2 
L 278.475143 133.396364 
L 279.263076 135.592727 
L 279.603636 136.858475 
L 279.833418 137.789091 
L 280.194959 139.985455 
L 280.37573 142.181818 
L 280.37573 144.378182 
L 280.194959 146.574545 
L 279.833418 148.770909 
L 279.603636 149.701525 
L 279.263076 150.967273 
L 278.475143 153.163636 
L 277.490227 155.36 
L 277.407273 155.514156 
L 276.200057 157.556364 
L 275.210909 158.990628 
L 274.627882 159.752727 
L 273.014545 161.597981 
L 272.669898 161.949091 
L 270.818182 163.625922 
L 270.164225 164.145455 
L 268.621818 165.248276 
L 266.8437 166.341818 
L 266.425455 166.575656 
L 264.229091 167.603953 
L 262.032727 168.432581 
L 261.663963 168.538182 
L 259.836364 169.017927 
L 257.64 169.411442 
L 255.443636 169.621927 
L 253.247273 169.649381 
L 251.050909 169.493805 
L 248.854545 169.155199 
L 246.658182 168.633563 
" style="fill:none;stroke:#676767;stroke-width:1.5;"/>
   </g>
   <g id="LineCollection_30"/>
   <g id="LineCollection_31"/>
   <g id="LineCollection_32">
    <path clip-path="url(#pe503837bf3)" d="M 182.963636 172.999302 
L 182.659666 172.930909 
L 180.767273 172.472368 
L 178.570909 171.771221 
L 176.374545 170.901123 
L 176.022431 170.734545 
L 174.178182 169.789368 
L 172.078289 168.538182 
L 171.981818 168.475476 
L 169.785455 166.84817 
L 169.176726 166.341818 
L 167.589091 164.889132 
L 166.856403 164.145455 
L 165.392727 162.494753 
L 164.952282 161.949091 
L 163.376416 159.752727 
L 163.196364 159.465929 
L 162.096202 157.556364 
L 161.011578 155.36 
L 161 155.331865 
L 160.175579 153.163636 
L 159.507483 150.967273 
L 159.006412 148.770909 
L 158.803636 147.437662 
L 158.681641 146.574545 
L 158.526421 144.378182 
L 158.526421 142.181818 
L 158.681641 139.985455 
L 158.803636 139.122338 
L 159.006412 137.789091 
L 159.507483 135.592727 
L 160.175579 133.396364 
L 161 131.228135 
L 161.011578 131.2 
L 162.096202 129.003636 
L 163.196364 127.094071 
L 163.376416 126.807273 
L 164.952282 124.610909 
L 165.392727 124.065247 
L 166.856403 122.414545 
L 167.589091 121.670868 
L 169.176726 120.218182 
L 169.785455 119.71183 
L 171.981818 118.084524 
L 172.078289 118.021818 
L 174.178182 116.770632 
L 176.022431 115.825455 
L 176.374545 115.658877 
L 178.570909 114.788779 
L 180.767273 114.087632 
L 182.659666 113.629091 
L 182.963636 113.560698 
L 185.16 113.223399 
L 187.356364 113.042983 
L 189.552727 113.019451 
L 191.749091 113.152802 
L 193.945455 113.443035 
L 194.859412 113.629091 
L 196.141818 113.910234 
L 198.338182 114.560695 
L 200.534545 115.380108 
L 201.524204 115.825455 
L 202.730909 116.413723 
L 204.927273 117.667481 
L 205.468935 118.021818 
L 207.123636 119.202673 
L 208.385851 120.218182 
L 209.32 121.044904 
L 210.710499 122.414545 
L 211.516364 123.29652 
L 212.606641 124.610909 
L 213.712727 126.111039 
L 214.182758 126.807273 
L 215.480188 129.003636 
L 215.909091 129.850719 
L 216.539105 131.2 
L 217.393722 133.396364 
L 218.077415 135.592727 
L 218.105455 135.712832 
L 218.555186 137.789091 
L 218.87235 139.985455 
L 219.030932 142.181818 
L 219.030932 144.378182 
L 218.87235 146.574545 
L 218.555186 148.770909 
L 218.105455 150.847168 
L 218.077415 150.967273 
L 217.393722 153.163636 
L 216.539105 155.36 
L 215.909091 156.709281 
L 215.480188 157.556364 
L 214.182758 159.752727 
L 213.712727 160.448961 
L 212.606641 161.949091 
L 211.516364 163.26348 
L 210.710499 164.145455 
L 209.32 165.515096 
L 208.385851 166.341818 
L 207.123636 167.357327 
L 205.468935 168.538182 
L 204.927273 168.892519 
L 202.730909 170.146277 
L 201.524204 170.734545 
L 200.534545 171.179892 
L 198.338182 171.999305 
L 196.141818 172.649766 
L 194.859412 172.930909 
L 193.945455 173.116965 
L 191.749091 173.407198 
L 189.552727 173.540549 
L 187.356364 173.517017 
L 185.16 173.336601 
L 182.963636 172.999302 
" style="fill:none;stroke:#767676;stroke-width:1.5;"/>
   </g>
   <g id="LineCollection_33"/>
   <g id="LineCollection_34"/>
   <g id="LineCollection_35">
    <path clip-path="url(#pe503837bf3)" d="M 248.854545 173.116965 
L 247.940588 172.930909 
L 246.658182 172.649766 
L 244.461818 171.999305 
L 242.265455 171.179892 
L 241.275796 170.734545 
L 240.069091 170.146277 
L 237.872727 168.892519 
L 237.331065 168.538182 
L 235.676364 167.357327 
L 234.414149 166.341818 
L 233.48 165.515096 
L 232.089501 164.145455 
L 231.283636 163.26348 
L 230.193359 161.949091 
L 229.087273 160.448961 
L 228.617242 159.752727 
L 227.319812 157.556364 
L 226.890909 156.709281 
L 226.260895 155.36 
L 225.406278 153.163636 
L 224.722585 150.967273 
L 224.694545 150.847168 
L 224.244814 148.770909 
L 223.92765 146.574545 
L 223.769068 144.378182 
L 223.769068 142.181818 
L 223.92765 139.985455 
L 224.244814 137.789091 
L 224.694545 135.712832 
L 224.722585 135.592727 
L 225.406278 133.396364 
L 226.260895 131.2 
L 226.890909 129.850719 
L 227.319812 129.003636 
L 228.617242 126.807273 
L 229.087273 126.111039 
L 230.193359 124.610909 
L 231.283636 123.29652 
L 232.089501 122.414545 
L 233.48 121.044904 
L 234.414149 120.218182 
L 235.676364 119.202673 
L 237.331065 118.021818 
L 237.872727 117.667481 
L 240.069091 116.413723 
L 241.275796 115.825455 
L 242.265455 115.380108 
L 244.461818 114.560695 
L 246.658182 113.910234 
L 247.940588 113.629091 
L 248.854545 113.443035 
L 251.050909 113.152802 
L 253.247273 113.019451 
L 255.443636 113.042983 
L 257.64 113.223399 
L 259.836364 113.560698 
L 260.140334 113.629091 
L 262.032727 114.087632 
L 264.229091 114.788779 
L 266.425455 115.658877 
L 266.777569 115.825455 
L 268.621818 116.770632 
L 270.721711 118.021818 
L 270.818182 118.084524 
L 273.014545 119.71183 
L 273.623274 120.218182 
L 275.210909 121.670868 
L 275.943597 122.414545 
L 277.407273 124.065247 
L 277.847718 124.610909 
L 279.423584 126.807273 
L 279.603636 127.094071 
L 280.703798 129.003636 
L 281.788422 131.2 
L 281.8 131.228135 
L 282.624421 133.396364 
L 283.292517 135.592727 
L 283.793588 137.789091 
L 283.996364 139.122338 
L 284.118359 139.985455 
L 284.273579 142.181818 
L 284.273579 144.378182 
L 284.118359 146.574545 
L 283.996364 147.437662 
L 283.793588 148.770909 
L 283.292517 150.967273 
L 282.624421 153.163636 
L 281.8 155.331865 
L 281.788422 155.36 
L 280.703798 157.556364 
L 279.603636 159.465929 
L 279.423584 159.752727 
L 277.847718 161.949091 
L 277.407273 162.494753 
L 275.943597 164.145455 
L 275.210909 164.889132 
L 273.623274 166.341818 
L 273.014545 166.84817 
L 270.818182 168.475476 
L 270.721711 168.538182 
L 268.621818 169.789368 
L 266.777569 170.734545 
L 266.425455 170.901123 
L 264.229091 171.771221 
L 262.032727 172.472368 
L 260.140334 172.930909 
L 259.836364 172.999302 
L 257.64 173.336601 
L 255.443636 173.517017 
L 253.247273 173.540549 
L 251.050909 173.407198 
L 248.854545 173.116965 
" style="fill:none;stroke:#767676;stroke-width:1.5;"/>
   </g>
   <g id="LineCollection_36"/>
   <g id="LineCollection_37"/>
   <g id="LineCollection_38">
    <path clip-path="url(#pe503837bf3)" d="M 187.356364 177.416446 
L 186.065099 177.323636 
L 185.16 177.254245 
L 182.963636 176.939433 
L 180.767273 176.478197 
L 178.570909 175.870536 
L 176.406064 175.127273 
L 176.374545 175.115679 
L 174.178182 174.150847 
L 171.981818 173.029133 
L 171.81309 172.930909 
L 169.785455 171.659738 
L 168.470974 170.734545 
L 167.589091 170.06211 
L 165.787403 168.538182 
L 165.392727 168.174004 
L 163.58519 166.341818 
L 163.196364 165.908277 
L 161.745481 164.145455 
L 161 163.139056 
L 160.185576 161.949091 
L 158.849385 159.752727 
L 158.803636 159.666786 
L 157.759611 157.556364 
L 156.828291 155.36 
L 156.607273 154.734518 
L 156.08883 153.163636 
L 155.508932 150.967273 
L 155.074008 148.770909 
L 154.784059 146.574545 
L 154.639085 144.378182 
L 154.639085 142.181818 
L 154.784059 139.985455 
L 155.074008 137.789091 
L 155.508932 135.592727 
L 156.08883 133.396364 
L 156.607273 131.825482 
L 156.828291 131.2 
L 157.759611 129.003636 
L 158.803636 126.893214 
L 158.849385 126.807273 
L 160.185576 124.610909 
L 161 123.420944 
L 161.745481 122.414545 
L 163.196364 120.651723 
L 163.58519 120.218182 
L 165.392727 118.385996 
L 165.787403 118.021818 
L 167.589091 116.49789 
L 168.470974 115.825455 
L 169.785455 114.900262 
L 171.81309 113.629091 
L 171.981818 113.530867 
L 174.178182 112.409153 
L 176.374545 111.444321 
L 176.406064 111.432727 
L 178.570909 110.689464 
L 180.767273 110.081803 
L 182.963636 109.620567 
L 185.16 109.305755 
L 186.065099 109.236364 
L 187.356364 109.143554 
L 189.552727 109.122963 
L 191.687326 109.236364 
L 191.749091 109.239864 
L 193.945455 109.510748 
L 196.141818 109.928058 
L 198.338182 110.491791 
L 200.534545 111.201948 
L 201.126286 111.432727 
L 202.730909 112.103231 
L 204.927273 113.17788 
L 205.73198 113.629091 
L 207.123636 114.469437 
L 209.115526 115.825455 
L 209.32 115.976254 
L 211.516364 117.779102 
L 211.784805 118.021818 
L 213.712727 119.92345 
L 213.986318 120.218182 
L 215.839789 122.414545 
L 215.909091 122.505793 
L 217.383491 124.610909 
L 218.105455 125.770562 
L 218.704276 126.807273 
L 219.814352 129.003636 
L 220.301818 130.128871 
L 220.734598 131.2 
L 221.474114 133.396364 
L 222.065727 135.592727 
L 222.498182 137.733379 
L 222.508727 137.789091 
L 222.78587 139.985455 
L 222.924442 142.181818 
L 222.924442 144.378182 
L 222.78587 146.574545 
L 222.508727 148.770909 
L 222.498182 148.826621 
L 222.065727 150.967273 
L 221.474114 153.163636 
L 220.734598 155.36 
L 220.301818 156.431129 
L 219.814352 157.556364 
L 218.704276 159.752727 
L 218.105455 160.789438 
L 217.383491 161.949091 
L 215.909091 164.054207 
L 215.839789 164.145455 
L 213.986318 166.341818 
L 213.712727 166.63655 
L 211.784805 168.538182 
L 211.516364 168.780898 
L 209.32 170.583746 
L 209.115526 170.734545 
L 207.123636 172.090563 
L 205.73198 172.930909 
L 204.927273 173.38212 
L 202.730909 174.456769 
L 201.126286 175.127273 
L 200.534545 175.358052 
L 198.338182 176.068209 
L 196.141818 176.631942 
L 193.945455 177.049252 
L 191.749091 177.320136 
L 191.687326 177.323636 
L 189.552727 177.437037 
L 187.356364 177.416446 
" style="fill:none;stroke:#868686;stroke-width:1.5;"/>
   </g>
   <g id="LineCollection_39"/>
   <g id="LineCollection_40"/>
   <g id="LineCollection_41">
    <path clip-path="url(#pe503837bf3)" d="M 253.247273 177.437037 
L 251.112674 177.323636 
L 251.050909 177.320136 
L 248.854545 177.049252 
L 246.658182 176.631942 
L 244.461818 176.068209 
L 242.265455 175.358052 
L 241.673714 175.127273 
L 240.069091 174.456769 
L 237.872727 173.38212 
L 237.06802 172.930909 
L 235.676364 172.090563 
L 233.684474 170.734545 
L 233.48 170.583746 
L 231.283636 168.780898 
L 231.015195 168.538182 
L 229.087273 166.63655 
L 228.813682 166.341818 
L 226.960211 164.145455 
L 226.890909 164.054207 
L 225.416509 161.949091 
L 224.694545 160.789438 
L 224.095724 159.752727 
L 222.985648 157.556364 
L 222.498182 156.431129 
L 222.065402 155.36 
L 221.325886 153.163636 
L 220.734273 150.967273 
L 220.301818 148.826621 
L 220.291273 148.770909 
L 220.01413 146.574545 
L 219.875558 144.378182 
L 219.875558 142.181818 
L 220.01413 139.985455 
L 220.291273 137.789091 
L 220.301818 137.733379 
L 220.734273 135.592727 
L 221.325886 133.396364 
L 222.065402 131.2 
L 222.498182 130.128871 
L 222.985648 129.003636 
L 224.095724 126.807273 
L 224.694545 125.770562 
L 225.416509 124.610909 
L 226.890909 122.505793 
L 226.960211 122.414545 
L 228.813682 120.218182 
L 229.087273 119.92345 
L 231.015195 118.021818 
L 231.283636 117.779102 
L 233.48 115.976254 
L 233.684474 115.825455 
L 235.676364 114.469437 
L 237.06802 113.629091 
L 237.872727 113.17788 
L 240.069091 112.103231 
L 241.673714 111.432727 
L 242.265455 111.201948 
L 244.461818 110.491791 
L 246.658182 109.928058 
L 248.854545 109.510748 
L 251.050909 109.239864 
L 251.112674 109.236364 
L 253.247273 109.122963 
L 255.443636 109.143554 
L 256.734901 109.236364 
L 257.64 109.305755 
L 259.836364 109.620567 
L 262.032727 110.081803 
L 264.229091 110.689464 
L 266.393936 111.432727 
L 266.425455 111.444321 
L 268.621818 112.409153 
L 270.818182 113.530867 
L 270.98691 113.629091 
L 273.014545 114.900262 
L 274.329026 115.825455 
L 275.210909 116.49789 
L 277.012597 118.021818 
L 277.407273 118.385996 
L 279.21481 120.218182 
L 279.603636 120.651723 
L 281.054519 122.414545 
L 281.8 123.420944 
L 282.614424 124.610909 
L 283.950615 126.807273 
L 283.996364 126.893214 
L 285.040389 129.003636 
L 285.971709 131.2 
L 286.192727 131.825482 
L 286.71117 133.396364 
L 287.291068 135.592727 
L 287.725992 137.789091 
L 288.015941 139.985455 
L 288.160915 142.181818 
L 288.160915 144.378182 
L 288.015941 146.574545 
L 287.725992 148.770909 
L 287.291068 150.967273 
L 286.71117 153.163636 
L 286.192727 154.734518 
L 285.971709 155.36 
L 285.040389 157.556364 
L 283.996364 159.666786 
L 283.950615 159.752727 
L 282.614424 161.949091 
L 281.8 163.139056 
L 281.054519 164.145455 
L 279.603636 165.908277 
L 279.21481 166.341818 
L 277.407273 168.174004 
L 277.012597 168.538182 
L 275.210909 170.06211 
L 274.329026 170.734545 
L 273.014545 171.659738 
L 270.98691 172.930909 
L 270.818182 173.029133 
L 268.621818 174.150847 
L 266.425455 175.115679 
L 266.393936 175.127273 
L 264.229091 175.870536 
L 262.032727 176.478197 
L 259.836364 176.939433 
L 257.64 177.254245 
L 256.734901 177.323636 
L 255.443636 177.416446 
L 253.247273 177.437037 
" style="fill:none;stroke:#868686;stroke-width:1.5;"/>
   </g>
   <g id="LineCollection_42"/>
   <g id="LineCollection_43"/>
   <g id="LineCollection_44">
    <path clip-path="url(#pe503837bf3)" d="M 178.570909 179.925883 
L 176.374545 179.244296 
L 174.178182 178.400069 
L 171.795447 177.323636 
L 167.97518 175.127273 
L 167.589091 174.874936 
L 164.951177 172.930909 
L 162.456729 170.734545 
L 160.341665 168.538182 
L 158.52555 166.341818 
L 156.607273 163.569901 
L 155.644416 161.949091 
L 154.410909 159.593197 
L 153.528071 157.556364 
L 152.214545 153.752948 
L 152.042734 153.163636 
L 151.530463 150.967273 
L 151.146259 148.770909 
L 150.890124 146.574545 
L 150.762056 144.378182 
L 150.762056 142.181818 
L 150.890124 139.985455 
L 151.146259 137.789091 
L 151.530463 135.592727 
L 152.214545 132.807052 
L 152.712085 131.2 
L 153.528071 129.003636 
L 154.48462 126.807273 
L 156.607273 122.990099 
L 156.97335 122.414545 
L 158.803636 119.860462 
L 161 117.300393 
L 163.196364 115.134181 
L 165.392727 113.277428 
L 167.97518 111.432727 
L 169.785455 110.32846 
L 171.981818 109.141431 
L 174.178182 108.159931 
L 177.231101 107.04 
L 178.570909 106.634117 
L 180.767273 106.097946 
L 182.963636 105.690972 
L 185.16 105.413197 
L 187.356364 105.26462 
L 189.552727 105.24524 
L 191.749091 105.355058 
L 193.945455 105.594074 
L 196.141818 105.962288 
L 198.338182 106.4597 
L 200.534545 107.089204 
L 202.730909 107.892249 
L 205.750297 109.236364 
L 207.123636 109.955078 
L 209.596845 111.432727 
L 212.607777 113.629091 
L 215.110534 115.825455 
L 217.223758 118.021818 
L 219.031822 120.218182 
L 220.596377 122.414545 
L 222.498182 125.670226 
L 223.072086 126.807273 
L 224.694545 130.72721 
L 224.862898 131.2 
L 225.514638 133.396364 
L 226.03603 135.592727 
L 226.427074 137.789091 
L 226.68777 139.985455 
L 226.818118 142.181818 
L 226.818118 144.378182 
L 226.68777 146.574545 
L 226.427074 148.770909 
L 226.03603 150.967273 
L 225.514638 153.163636 
L 224.694545 155.83279 
L 224.042089 157.556364 
L 222.498182 160.889774 
L 221.927506 161.949091 
L 220.301818 164.582874 
L 218.105455 167.5082 
L 215.909091 169.945971 
L 213.712727 172.0087 
L 211.516364 173.776754 
L 209.32 175.309068 
L 205.750297 177.323636 
L 204.927273 177.727433 
L 202.730909 178.667751 
L 200.372224 179.52 
L 198.338182 180.1003 
L 196.141818 180.597712 
L 193.945455 180.965926 
L 191.749091 181.204942 
L 189.552727 181.31476 
L 187.356364 181.29538 
L 185.16 181.146803 
L 182.963636 180.869028 
L 180.767273 180.462054 
L 178.570909 179.925883 
L 178.570909 179.925883 
" style="fill:none;stroke:#959595;stroke-width:1.5;"/>
   </g>
   <g id="LineCollection_45"/>
   <g id="LineCollection_46"/>
   <g id="LineCollection_47">
    <path clip-path="url(#pe503837bf3)" d="M 244.461818 180.1003 
L 242.265455 179.470796 
L 240.069091 178.667751 
L 237.049703 177.323636 
L 235.676364 176.604922 
L 233.203155 175.127273 
L 230.192223 172.930909 
L 227.689466 170.734545 
L 225.576242 168.538182 
L 223.768178 166.341818 
L 222.203623 164.145455 
L 220.301818 160.889774 
L 219.727914 159.752727 
L 218.105455 155.83279 
L 217.937102 155.36 
L 217.285362 153.163636 
L 216.76397 150.967273 
L 216.372926 148.770909 
L 216.11223 146.574545 
L 215.981882 144.378182 
L 215.981882 142.181818 
L 216.11223 139.985455 
L 216.372926 137.789091 
L 216.76397 135.592727 
L 217.285362 133.396364 
L 218.105455 130.72721 
L 218.757911 129.003636 
L 220.301818 125.670226 
L 220.872494 124.610909 
L 222.498182 121.977126 
L 224.694545 119.0518 
L 226.890909 116.614029 
L 229.087273 114.5513 
L 231.283636 112.783246 
L 233.48 111.250932 
L 237.049703 109.236364 
L 237.872727 108.832567 
L 240.069091 107.892249 
L 242.427776 107.04 
L 244.461818 106.4597 
L 246.658182 105.962288 
L 248.854545 105.594074 
L 251.050909 105.355058 
L 253.247273 105.24524 
L 255.443636 105.26462 
L 257.64 105.413197 
L 259.836364 105.690972 
L 262.032727 106.097946 
L 265.568899 107.04 
L 266.425455 107.315704 
L 268.621818 108.159931 
L 271.004553 109.236364 
L 274.82482 111.432727 
L 275.210909 111.685064 
L 277.848823 113.629091 
L 280.343271 115.825455 
L 282.458335 118.021818 
L 284.27445 120.218182 
L 286.192727 122.990099 
L 287.155584 124.610909 
L 288.389091 126.966803 
L 289.271929 129.003636 
L 290.585455 132.807052 
L 290.757266 133.396364 
L 291.269537 135.592727 
L 291.653741 137.789091 
L 291.909876 139.985455 
L 292.037944 142.181818 
L 292.037944 144.378182 
L 291.909876 146.574545 
L 291.653741 148.770909 
L 291.269537 150.967273 
L 290.585455 153.752948 
L 290.087915 155.36 
L 289.271929 157.556364 
L 288.31538 159.752727 
L 286.192727 163.569901 
L 285.82665 164.145455 
L 283.996364 166.699538 
L 281.8 169.259607 
L 279.603636 171.425819 
L 277.407273 173.282572 
L 274.82482 175.127273 
L 273.014545 176.23154 
L 270.818182 177.418569 
L 268.621818 178.400069 
L 265.568899 179.52 
L 264.229091 179.925883 
L 262.032727 180.462054 
L 259.836364 180.869028 
L 257.64 181.146803 
L 255.443636 181.29538 
L 253.247273 181.31476 
L 251.050909 181.204942 
L 248.854545 180.965926 
L 246.658182 180.597712 
L 244.461818 180.1003 
L 244.461818 180.1003 
" style="fill:none;stroke:#959595;stroke-width:1.5;"/>
   </g>
   <g id="LineCollection_48"/>
   <g id="LineCollection_49"/>
   <g id="LineCollection_50">
    <path clip-path="url(#pe503837bf3)" d="M 178.570909 183.951146 
L 176.374545 183.324876 
L 174.178182 182.574452 
L 171.981818 181.701163 
L 169.785455 180.648201 
L 167.589091 179.462668 
L 164.322646 177.323636 
L 161.518388 175.127273 
L 159.140633 172.930909 
L 157.098956 170.734545 
L 155.326808 168.538182 
L 153.77412 166.341818 
L 152.214545 163.787288 
L 151.249894 161.949091 
L 150.018182 159.245162 
L 149.366854 157.556364 
L 148.640784 155.36 
L 147.821818 152.193034 
L 147.565784 150.967273 
L 147.221707 148.770909 
L 146.992321 146.574545 
L 146.877629 144.378182 
L 146.877629 142.181818 
L 146.992321 139.985455 
L 147.221707 137.789091 
L 147.821818 134.366966 
L 148.035725 133.396364 
L 148.640784 131.2 
L 150.018182 127.314838 
L 150.225351 126.807273 
L 152.214545 122.772712 
L 152.414143 122.414545 
L 154.410909 119.28326 
L 156.607273 116.405231 
L 158.803636 113.969976 
L 161 111.882614 
L 163.196364 110.073567 
L 165.392727 108.490651 
L 167.689344 107.04 
L 169.785455 105.911799 
L 172.017959 104.843636 
L 174.178182 103.985548 
L 178.42917 102.647273 
L 178.570909 102.608854 
L 180.767273 102.129122 
L 182.963636 101.764988 
L 185.16 101.516452 
L 187.356364 101.383514 
L 189.552727 101.366175 
L 191.749091 101.464433 
L 193.945455 101.678289 
L 196.141818 102.007744 
L 199.100047 102.647273 
L 200.534545 103.03379 
L 202.730909 103.747609 
L 205.523885 104.843636 
L 207.123636 105.582345 
L 209.862367 107.04 
L 213.253687 109.236364 
L 213.712727 109.568403 
L 216.059905 111.432727 
L 218.427749 113.629091 
L 220.476691 115.825455 
L 222.498182 118.354798 
L 224.694545 121.649695 
L 225.148462 122.414545 
L 226.890909 125.810028 
L 227.337853 126.807273 
L 228.199172 129.003636 
L 229.087273 131.734882 
L 229.527984 133.396364 
L 229.994056 135.592727 
L 230.34361 137.789091 
L 230.576646 139.985455 
L 230.693164 142.181818 
L 230.693164 144.378182 
L 230.576646 146.574545 
L 230.34361 148.770909 
L 229.994056 150.967273 
L 229.087273 154.825118 
L 228.937446 155.36 
L 228.199172 157.556364 
L 226.890909 160.749972 
L 226.321594 161.949091 
L 224.694545 164.910305 
L 222.498182 168.205202 
L 222.25153 168.538182 
L 220.301818 170.934304 
L 218.105455 173.24975 
L 215.909091 175.25647 
L 213.253687 177.323636 
L 209.862367 179.52 
L 209.32 179.834254 
L 205.523885 181.716364 
L 204.927273 181.976553 
L 202.730909 182.812391 
L 199.100047 183.912727 
L 198.338182 184.107203 
L 196.141818 184.552256 
L 193.945455 184.881711 
L 191.749091 185.095567 
L 189.552727 185.193825 
L 187.356364 185.176486 
L 185.16 185.043548 
L 182.963636 184.795012 
L 180.767273 184.430878 
L 178.570909 183.951146 
L 178.570909 183.951146 
" style="fill:none;stroke:#a4a4a4;stroke-width:1.5;"/>
   </g>
   <g id="LineCollection_51"/>
   <g id="LineCollection_52"/>
   <g id="LineCollection_53">
    <path clip-path="url(#pe503837bf3)" d="M 244.461818 184.107203 
L 242.265455 183.52621 
L 240.069091 182.812391 
L 237.276115 181.716364 
L 235.676364 180.977655 
L 232.937633 179.52 
L 229.546313 177.323636 
L 229.087273 176.991597 
L 226.740095 175.127273 
L 224.372251 172.930909 
L 222.323309 170.734545 
L 220.301818 168.205202 
L 218.105455 164.910305 
L 217.651538 164.145455 
L 215.909091 160.749972 
L 215.462147 159.752727 
L 214.600828 157.556364 
L 213.712727 154.825118 
L 213.272016 153.163636 
L 212.805944 150.967273 
L 212.45639 148.770909 
L 212.223354 146.574545 
L 212.106836 144.378182 
L 212.106836 142.181818 
L 212.223354 139.985455 
L 212.45639 137.789091 
L 212.805944 135.592727 
L 213.712727 131.734882 
L 213.862554 131.2 
L 214.600828 129.003636 
L 215.909091 125.810028 
L 216.478406 124.610909 
L 218.105455 121.649695 
L 220.301818 118.354798 
L 220.54847 118.021818 
L 222.498182 115.625696 
L 224.694545 113.31025 
L 226.890909 111.30353 
L 229.546313 109.236364 
L 232.937633 107.04 
L 233.48 106.725746 
L 237.276115 104.843636 
L 237.872727 104.583447 
L 240.069091 103.747609 
L 243.699953 102.647273 
L 244.461818 102.452797 
L 246.658182 102.007744 
L 248.854545 101.678289 
L 251.050909 101.464433 
L 253.247273 101.366175 
L 255.443636 101.383514 
L 257.64 101.516452 
L 259.836364 101.764988 
L 262.032727 102.129122 
L 264.37083 102.647273 
L 266.425455 103.235124 
L 268.621818 103.985548 
L 270.818182 104.858837 
L 273.014545 105.911799 
L 275.210909 107.097332 
L 278.477354 109.236364 
L 281.281612 111.432727 
L 283.659367 113.629091 
L 285.701044 115.825455 
L 287.473192 118.021818 
L 289.02588 120.218182 
L 290.585455 122.772712 
L 291.550106 124.610909 
L 292.781818 127.314838 
L 293.433146 129.003636 
L 294.159216 131.2 
L 294.978182 134.366966 
L 295.234216 135.592727 
L 295.578293 137.789091 
L 295.807679 139.985455 
L 295.922371 142.181818 
L 295.922371 144.378182 
L 295.807679 146.574545 
L 295.578293 148.770909 
L 294.978182 152.193034 
L 294.764275 153.163636 
L 294.159216 155.36 
L 292.781818 159.245162 
L 292.574649 159.752727 
L 290.585455 163.787288 
L 290.385857 164.145455 
L 288.389091 167.27674 
L 286.192727 170.154769 
L 283.996364 172.590024 
L 281.8 174.677386 
L 279.603636 176.486433 
L 277.407273 178.069349 
L 275.110656 179.52 
L 273.014545 180.648201 
L 270.782041 181.716364 
L 268.621818 182.574452 
L 264.37083 183.912727 
L 264.229091 183.951146 
L 262.032727 184.430878 
L 259.836364 184.795012 
L 257.64 185.043548 
L 255.443636 185.176486 
L 253.247273 185.193825 
L 251.050909 185.095567 
L 248.854545 184.881711 
L 246.658182 184.552256 
L 244.461818 184.107203 
L 244.461818 184.107203 
" style="fill:none;stroke:#a4a4a4;stroke-width:1.5;"/>
   </g>
   <g id="LineCollection_54"/>
   <g id="LineCollection_55"/>
   <g id="LineCollection_56">
    <path clip-path="url(#pe503837bf3)" d="M 180.767273 188.388963 
L 178.570909 187.937393 
L 174.178182 186.696448 
L 171.981818 185.900835 
L 167.589091 183.900336 
L 163.866412 181.716364 
L 161 179.707137 
L 158.803636 177.913696 
L 156.607273 175.881131 
L 154.410909 173.558198 
L 152.105886 170.734545 
L 150.018182 167.679294 
L 147.997473 164.145455 
L 146.956067 161.949091 
L 145.625455 158.622683 
L 144.601017 155.36 
L 143.620011 150.967273 
L 143.299443 148.770909 
L 142.987902 144.378182 
L 143.091749 139.985455 
L 143.429091 136.875074 
L 144.056014 133.396364 
L 145.255021 129.003636 
L 146.038526 126.807273 
L 147.821818 122.768782 
L 149.20759 120.218182 
L 150.569072 118.021818 
L 152.214545 115.682108 
L 154.410909 113.001802 
L 156.607273 110.678869 
L 158.803636 108.646304 
L 161 106.852863 
L 163.866412 104.843636 
L 167.613467 102.647273 
L 171.981818 100.659165 
L 174.178182 99.863552 
L 178.570909 98.622607 
L 180.767273 98.171037 
L 185.16 97.616716 
L 189.552727 97.480751 
L 193.945455 97.76314 
L 197.19633 98.254545 
L 200.534545 99.00697 
L 204.927273 100.401661 
L 207.123636 101.306514 
L 209.932852 102.647273 
L 213.721707 104.843636 
L 216.797627 107.04 
L 219.42937 109.236364 
L 221.70667 111.432727 
L 223.696613 113.629091 
L 225.450362 115.825455 
L 227.007612 118.021818 
L 229.087273 121.514377 
L 230.613477 124.610909 
L 231.532423 126.807273 
L 232.970848 131.2 
L 233.521973 133.396364 
L 234.259361 137.789091 
L 234.575385 142.181818 
L 234.470044 146.574545 
L 233.943338 150.967273 
L 233.48 153.338665 
L 232.306959 157.556364 
L 231.283636 160.370029 
L 229.564816 164.145455 
L 228.361113 166.341818 
L 226.890909 168.711777 
L 224.694545 171.7142 
L 222.498182 174.287705 
L 220.301818 176.518076 
L 218.105455 178.469651 
L 215.909091 180.191629 
L 213.712727 181.722276 
L 209.932852 183.912727 
L 207.123636 185.253486 
L 204.927273 186.158339 
L 200.534545 187.55303 
L 197.19633 188.305455 
L 193.945455 188.79686 
L 189.552727 189.079249 
L 185.16 188.943284 
L 180.767273 188.388963 
L 180.767273 188.388963 
" style="fill:none;stroke:#b3b3b3;stroke-width:1.5;"/>
   </g>
   <g id="LineCollection_57"/>
   <g id="LineCollection_58"/>
   <g id="LineCollection_59">
    <path clip-path="url(#pe503837bf3)" d="M 246.658182 188.498782 
L 244.461818 188.085648 
L 240.069091 186.910593 
L 237.747255 186.109091 
L 233.48 184.230443 
L 231.283636 183.046195 
L 229.078293 181.716364 
L 226.002373 179.52 
L 223.37063 177.323636 
L 221.09333 175.127273 
L 219.103387 172.930909 
L 217.349638 170.734545 
L 215.792388 168.538182 
L 213.712727 165.045623 
L 212.186523 161.949091 
L 211.267577 159.752727 
L 209.829152 155.36 
L 209.278027 153.163636 
L 208.540639 148.770909 
L 208.224615 144.378182 
L 208.329956 139.985455 
L 208.856662 135.592727 
L 209.32 133.221335 
L 210.493041 129.003636 
L 211.516364 126.189971 
L 213.235184 122.414545 
L 214.438887 120.218182 
L 215.909091 117.848223 
L 218.105455 114.8458 
L 220.301818 112.272295 
L 222.498182 110.041924 
L 224.694545 108.090349 
L 226.890909 106.368371 
L 229.087273 104.837724 
L 232.867148 102.647273 
L 235.676364 101.306514 
L 237.872727 100.401661 
L 242.265455 99.00697 
L 245.60367 98.254545 
L 248.854545 97.76314 
L 253.247273 97.480751 
L 257.64 97.616716 
L 262.032727 98.171037 
L 264.229091 98.622607 
L 268.621818 99.863552 
L 270.818182 100.659165 
L 275.210909 102.659664 
L 278.933588 104.843636 
L 281.8 106.852863 
L 283.996364 108.646304 
L 286.192727 110.678869 
L 288.389091 113.001802 
L 290.694114 115.825455 
L 292.781818 118.880706 
L 294.802527 122.414545 
L 295.843933 124.610909 
L 297.174545 127.937317 
L 298.198983 131.2 
L 299.179989 135.592727 
L 299.500557 137.789091 
L 299.812098 142.181818 
L 299.708251 146.574545 
L 299.370909 149.684926 
L 298.743986 153.163636 
L 297.544979 157.556364 
L 296.761474 159.752727 
L 294.978182 163.791218 
L 293.59241 166.341818 
L 292.230928 168.538182 
L 290.585455 170.877892 
L 288.389091 173.558198 
L 286.192727 175.881131 
L 283.996364 177.913696 
L 281.8 179.707137 
L 278.933588 181.716364 
L 275.186533 183.912727 
L 270.818182 185.900835 
L 268.621818 186.696448 
L 264.229091 187.937393 
L 262.032727 188.388963 
L 257.64 188.943284 
L 253.247273 189.079249 
L 248.854545 188.79686 
L 246.658182 188.498782 
L 246.658182 188.498782 
" style="fill:none;stroke:#b3b3b3;stroke-width:1.5;"/>
   </g>
   <g id="LineCollection_60"/>
   <g id="LineCollection_61"/>
   <g id="LineCollection_62">
    <path clip-path="url(#pe503837bf3)" d="M 185.16 192.845231 
L 182.963636 192.63727 
L 178.570909 191.908477 
L 174.178182 190.780344 
L 171.981818 190.045798 
L 167.589091 188.232961 
L 163.196364 185.882504 
L 160.183275 183.912727 
L 157.291813 181.716364 
L 154.782062 179.52 
L 152.583117 177.323636 
L 150.640608 175.127273 
L 148.91215 172.930909 
L 147.364209 170.734545 
L 145.625455 167.907201 
L 143.680896 164.145455 
L 142.734368 161.949091 
L 141.179194 157.556364 
L 140.088449 153.163636 
L 139.394339 148.770909 
L 139.096863 144.378182 
L 139.196022 139.985455 
L 139.691815 135.592727 
L 140.584242 131.2 
L 141.232727 128.834243 
L 142.734368 124.610909 
L 143.680896 122.414545 
L 145.625455 118.652799 
L 147.364209 115.825455 
L 148.91215 113.629091 
L 150.640608 111.432727 
L 152.583117 109.236364 
L 154.782062 107.04 
L 157.291813 104.843636 
L 160.183275 102.647273 
L 163.196364 100.677496 
L 165.392727 99.441694 
L 167.747548 98.254545 
L 171.981818 96.514202 
L 174.178182 95.779656 
L 178.570909 94.651523 
L 182.963636 93.92273 
L 187.356364 93.604951 
L 191.749091 93.671797 
L 196.141818 94.132383 
L 200.534545 95.000945 
L 204.927273 96.278877 
L 209.32 98.025509 
L 211.516364 99.095767 
L 213.988871 100.450909 
L 217.385846 102.647273 
L 220.301818 104.851405 
L 222.787779 107.04 
L 224.986508 109.236364 
L 226.938881 111.432727 
L 229.087273 114.213683 
L 231.581265 118.021818 
L 233.48 121.57117 
L 234.832567 124.610909 
L 235.676364 126.81045 
L 236.982107 131.2 
L 237.886172 135.592727 
L 238.366777 139.985455 
L 238.462898 144.378182 
L 238.174535 148.770909 
L 237.872727 151.044075 
L 236.982107 155.36 
L 235.675297 159.752727 
L 233.884497 164.145455 
L 232.798394 166.341818 
L 231.283636 169.03051 
L 229.087273 172.346317 
L 226.890909 175.18436 
L 224.694545 177.63111 
L 222.498182 179.790007 
L 220.292283 181.716364 
L 217.385846 183.912727 
L 213.712727 186.272706 
L 209.32 188.534491 
L 204.927273 190.281123 
L 202.730909 190.975022 
L 198.338182 192.043253 
L 193.945455 192.711539 
L 189.552727 192.969373 
L 185.16 192.845231 
L 185.16 192.845231 
" style="fill:none;stroke:#c2c2c2;stroke-width:1.5;"/>
   </g>
   <g id="LineCollection_63"/>
   <g id="LineCollection_64"/>
   <g id="LineCollection_65">
    <path clip-path="url(#pe503837bf3)" d="M 248.854545 192.711539 
L 246.658182 192.427617 
L 242.265455 191.559055 
L 237.872727 190.281123 
L 233.48 188.534491 
L 231.283636 187.464233 
L 228.811129 186.109091 
L 225.414154 183.912727 
L 222.498182 181.708595 
L 220.012221 179.52 
L 217.813492 177.323636 
L 215.861119 175.127273 
L 213.712727 172.346317 
L 211.218735 168.538182 
L 209.32 164.98883 
L 207.967433 161.949091 
L 207.123636 159.74955 
L 205.817893 155.36 
L 204.913828 150.967273 
L 204.433223 146.574545 
L 204.337102 142.181818 
L 204.625465 137.789091 
L 204.927273 135.515925 
L 205.817893 131.2 
L 207.124703 126.807273 
L 208.915503 122.414545 
L 210.001606 120.218182 
L 211.516364 117.52949 
L 213.712727 114.213683 
L 215.909091 111.37564 
L 218.105455 108.92889 
L 220.301818 106.769993 
L 222.507717 104.843636 
L 225.414154 102.647273 
L 229.087273 100.287294 
L 233.48 98.025509 
L 237.872727 96.278877 
L 240.069091 95.584978 
L 244.461818 94.516747 
L 248.854545 93.848461 
L 253.247273 93.590627 
L 257.64 93.714769 
L 259.836364 93.92273 
L 264.229091 94.651523 
L 268.621818 95.779656 
L 270.818182 96.514202 
L 275.210909 98.327039 
L 279.603636 100.677496 
L 282.616725 102.647273 
L 285.508187 104.843636 
L 288.017938 107.04 
L 290.216883 109.236364 
L 292.159392 111.432727 
L 293.88785 113.629091 
L 295.435791 115.825455 
L 297.174545 118.652799 
L 299.119104 122.414545 
L 300.065632 124.610909 
L 301.620806 129.003636 
L 302.711551 133.396364 
L 303.405661 137.789091 
L 303.703137 142.181818 
L 303.603978 146.574545 
L 303.108185 150.967273 
L 302.215758 155.36 
L 301.567273 157.725757 
L 300.065632 161.949091 
L 299.119104 164.145455 
L 297.174545 167.907201 
L 295.435791 170.734545 
L 293.88785 172.930909 
L 292.159392 175.127273 
L 290.216883 177.323636 
L 288.017938 179.52 
L 285.508187 181.716364 
L 282.616725 183.912727 
L 279.603636 185.882504 
L 277.407273 187.118306 
L 275.052452 188.305455 
L 270.818182 190.045798 
L 268.621818 190.780344 
L 264.229091 191.908477 
L 259.836364 192.63727 
L 255.443636 192.955049 
L 251.050909 192.888203 
L 248.854545 192.711539 
L 248.854545 192.711539 
" style="fill:none;stroke:#c2c2c2;stroke-width:1.5;"/>
   </g>
   <g id="LineCollection_66"/>
   <g id="LineCollection_67"/>
   <g id="LineCollection_68">
    <path clip-path="url(#pe503837bf3)" d="M 176.374545 195.398484 
L 174.178182 194.833106 
L 169.785455 193.372047 
L 167.589091 192.489189 
L 163.196364 190.356086 
L 159.754568 188.305455 
L 156.584568 186.109091 
L 153.866019 183.912727 
L 151.464502 181.716364 
L 149.327614 179.52 
L 147.413901 177.323636 
L 145.625455 175.03418 
L 143.429091 171.791607 
L 141.533197 168.538182 
L 140.428887 166.341818 
L 138.566103 161.949091 
L 137.142974 157.556364 
L 136.584748 155.36 
L 135.766227 150.967273 
L 135.311493 146.574545 
L 135.220547 142.181818 
L 135.493387 137.789091 
L 136.130014 133.396364 
L 137.142974 129.003636 
L 138.566103 124.610909 
L 139.4373 122.414545 
L 141.533197 118.021818 
L 143.429091 114.768393 
L 145.693512 111.432727 
L 147.821818 108.748138 
L 150.018182 106.302718 
L 152.214545 104.129011 
L 154.410909 102.184116 
L 156.607273 100.43371 
L 159.754568 98.254545 
L 163.470837 96.058182 
L 167.589091 94.070811 
L 169.785455 93.187953 
L 174.407956 91.665455 
L 178.570909 90.690213 
L 182.963636 90.022152 
L 187.356364 89.720152 
L 191.749091 89.784213 
L 196.141818 90.214334 
L 200.534545 91.010516 
L 204.927273 92.194815 
L 209.48871 93.861818 
L 213.712727 95.85286 
L 215.909091 97.08246 
L 218.105455 98.435019 
L 220.968361 100.450909 
L 223.697745 102.647273 
L 226.103166 104.843636 
L 228.239072 107.04 
L 230.148357 109.236364 
L 231.86527 111.432727 
L 233.48 113.729344 
L 236.033875 118.021818 
L 238.13289 122.414545 
L 239.766946 126.807273 
L 240.424249 129.003636 
L 241.437247 133.396364 
L 242.081882 137.789091 
L 242.354424 142.181818 
L 242.265455 146.581808 
L 241.80561 150.967273 
L 240.976794 155.36 
L 239.766946 159.752727 
L 238.13289 164.145455 
L 237.139596 166.341818 
L 235.676364 169.18915 
L 233.414343 172.930909 
L 231.283636 175.896968 
L 229.087273 178.573726 
L 226.890909 180.935571 
L 224.694545 183.034989 
L 222.498182 184.913415 
L 220.301818 186.603999 
L 217.824562 188.305455 
L 213.712727 190.70714 
L 209.32 192.770434 
L 204.927273 194.365185 
L 202.730909 195.01412 
L 198.338182 195.993333 
L 193.945455 196.606484 
L 189.552727 196.853575 
L 185.16 196.734605 
L 180.767273 196.249575 
L 176.374545 195.398484 
L 176.374545 195.398484 
" style="fill:none;stroke:#d1d1d1;stroke-width:1.5;"/>
   </g>
   <g id="LineCollection_69"/>
   <g id="LineCollection_70"/>
   <g id="LineCollection_71">
    <path clip-path="url(#pe503837bf3)" d="M 240.069091 195.01412 
L 237.872727 194.365185 
L 233.31129 192.698182 
L 229.087273 190.70714 
L 226.890909 189.47754 
L 224.694545 188.124981 
L 221.831639 186.109091 
L 219.102255 183.912727 
L 216.696834 181.716364 
L 214.560928 179.52 
L 212.651643 177.323636 
L 210.93473 175.127273 
L 209.32 172.830656 
L 206.766125 168.538182 
L 204.66711 164.145455 
L 203.033054 159.752727 
L 202.375751 157.556364 
L 201.362753 153.163636 
L 200.718118 148.770909 
L 200.445576 144.378182 
L 200.534545 139.978192 
L 200.99439 135.592727 
L 201.823206 131.2 
L 203.033054 126.807273 
L 204.66711 122.414545 
L 205.660404 120.218182 
L 207.123636 117.37085 
L 209.385657 113.629091 
L 211.516364 110.663032 
L 213.712727 107.986274 
L 215.909091 105.624429 
L 218.105455 103.525011 
L 220.301818 101.646585 
L 222.498182 99.956001 
L 224.975438 98.254545 
L 229.087273 95.85286 
L 233.48 93.789566 
L 237.872727 92.194815 
L 240.069091 91.54588 
L 244.461818 90.566667 
L 248.854545 89.953516 
L 253.247273 89.706425 
L 257.64 89.825395 
L 262.032727 90.310425 
L 266.425455 91.161516 
L 268.621818 91.726894 
L 273.014545 93.187953 
L 275.210909 94.070811 
L 279.603636 96.203914 
L 283.045432 98.254545 
L 286.215432 100.450909 
L 288.933981 102.647273 
L 291.335498 104.843636 
L 293.472386 107.04 
L 295.386099 109.236364 
L 297.174545 111.52582 
L 299.370909 114.768393 
L 301.266803 118.021818 
L 302.371113 120.218182 
L 304.233897 124.610909 
L 305.657026 129.003636 
L 306.215252 131.2 
L 307.033773 135.592727 
L 307.488507 139.985455 
L 307.579453 144.378182 
L 307.306613 148.770909 
L 306.669986 153.163636 
L 305.657026 157.556364 
L 304.233897 161.949091 
L 303.3627 164.145455 
L 301.266803 168.538182 
L 299.370909 171.791607 
L 297.106488 175.127273 
L 294.978182 177.811862 
L 292.781818 180.257282 
L 290.585455 182.430989 
L 288.389091 184.375884 
L 286.192727 186.12629 
L 283.045432 188.305455 
L 279.329163 190.501818 
L 275.210909 192.489189 
L 273.014545 193.372047 
L 268.392044 194.894545 
L 264.229091 195.869787 
L 259.836364 196.537848 
L 255.443636 196.839848 
L 251.050909 196.775787 
L 246.658182 196.345666 
L 242.265455 195.549484 
L 240.069091 195.01412 
L 240.069091 195.01412 
" style="fill:none;stroke:#d1d1d1;stroke-width:1.5;"/>
   </g>
   <g id="LineCollection_72"/>
   <g id="LineCollection_73"/>
   <g id="LineCollection_74">
    <path clip-path="url(#pe503837bf3)" d="M 176.374545 199.388531 
L 174.178182 198.852276 
L 169.785455 197.508102 
L 167.589091 196.688121 
L 163.196364 194.732079 
L 158.803636 192.298711 
L 156.049313 190.501818 
L 153.091911 188.305455 
L 150.018182 185.692784 
L 147.821818 183.57701 
L 145.625455 181.212321 
L 143.429091 178.552045 
L 140.955215 175.127273 
L 139.036364 172.026797 
L 137.172189 168.538182 
L 136.15802 166.341818 
L 134.438525 161.949091 
L 133.128567 157.556364 
L 132.178613 153.163636 
L 131.590676 148.770909 
L 131.338703 144.378182 
L 131.422694 139.985455 
L 131.842649 135.592727 
L 132.604584 131.2 
L 133.739881 126.807273 
L 135.248553 122.414545 
L 137.172189 118.021818 
L 139.566994 113.629091 
L 141.232727 111.022934 
L 143.429091 108.007955 
L 146.072908 104.843636 
L 148.154761 102.647273 
L 150.479396 100.450909 
L 153.091911 98.254545 
L 156.607273 95.673951 
L 159.471953 93.861818 
L 163.531497 91.665455 
L 167.589091 89.871879 
L 169.785455 89.051898 
L 174.178182 87.707724 
L 178.570909 86.73642 
L 182.963636 86.119748 
L 187.356364 85.840979 
L 191.749091 85.900112 
L 196.141818 86.297147 
L 200.534545 87.032084 
L 202.730909 87.536407 
L 207.123636 88.827869 
L 209.32 89.611061 
L 214.036839 91.665455 
L 218.113173 93.861818 
L 221.514429 96.058182 
L 224.694545 98.419418 
L 227.093771 100.450909 
L 229.413368 102.647273 
L 231.499253 104.843636 
L 233.48 107.163728 
L 235.676364 110.078497 
L 238.007169 113.629091 
L 240.395891 118.021818 
L 242.327207 122.414545 
L 243.829749 126.807273 
L 244.958755 131.2 
L 245.723446 135.592727 
L 246.148275 139.985455 
L 246.233241 144.378182 
L 245.978343 148.770909 
L 245.383583 153.163636 
L 244.448443 157.556364 
L 243.12267 161.949091 
L 242.265455 164.298909 
L 240.395891 168.538182 
L 239.256741 170.734545 
L 237.872727 173.150337 
L 235.070512 177.323636 
L 233.38027 179.52 
L 231.283636 181.954141 
L 229.087273 184.236249 
L 226.890909 186.290145 
L 224.486504 188.305455 
L 221.514429 190.501818 
L 218.105455 192.70283 
L 213.712727 195.054576 
L 209.32 196.948939 
L 207.123636 197.732131 
L 202.730909 199.023593 
L 198.338182 199.937622 
L 193.945455 200.503608 
L 189.552727 200.731692 
L 185.16 200.621874 
L 180.767273 200.174154 
L 176.374545 199.388531 
L 176.374545 199.388531 
" style="fill:none;stroke:#e1e1e1;stroke-width:1.5;"/>
   </g>
   <g id="LineCollection_75"/>
   <g id="LineCollection_76"/>
   <g id="LineCollection_77">
    <path clip-path="url(#pe503837bf3)" d="M 242.265455 199.527916 
L 240.069091 199.023593 
L 235.676364 197.732131 
L 233.48 196.948939 
L 228.763161 194.894545 
L 224.686827 192.698182 
L 221.285571 190.501818 
L 218.105455 188.140582 
L 215.706229 186.109091 
L 213.386632 183.912727 
L 211.300747 181.716364 
L 209.32 179.396272 
L 207.123636 176.481503 
L 204.792831 172.930909 
L 202.404109 168.538182 
L 200.472793 164.145455 
L 198.970251 159.752727 
L 197.841245 155.36 
L 197.076554 150.967273 
L 196.651725 146.574545 
L 196.566759 142.181818 
L 196.821657 137.789091 
L 197.416417 133.396364 
L 198.351557 129.003636 
L 199.67733 124.610909 
L 200.534545 122.261091 
L 202.404109 118.021818 
L 203.543259 115.825455 
L 204.927273 113.409663 
L 207.729488 109.236364 
L 209.41973 107.04 
L 211.516364 104.605859 
L 213.712727 102.323751 
L 215.909091 100.269855 
L 218.313496 98.254545 
L 221.285571 96.058182 
L 224.694545 93.85717 
L 229.087273 91.505424 
L 233.48 89.611061 
L 235.676364 88.827869 
L 240.069091 87.536407 
L 244.461818 86.622378 
L 248.854545 86.056392 
L 253.247273 85.828308 
L 257.64 85.938126 
L 262.032727 86.385846 
L 266.425455 87.171469 
L 268.621818 87.707724 
L 273.014545 89.051898 
L 275.210909 89.871879 
L 279.603636 91.827921 
L 283.996364 94.261289 
L 286.750687 96.058182 
L 289.708089 98.254545 
L 292.781818 100.867216 
L 294.978182 102.98299 
L 297.174545 105.347679 
L 299.370909 108.007955 
L 301.844785 111.432727 
L 303.763636 114.533203 
L 305.627811 118.021818 
L 306.64198 120.218182 
L 308.361475 124.610909 
L 309.671433 129.003636 
L 310.621387 133.396364 
L 311.209324 137.789091 
L 311.461297 142.181818 
L 311.377306 146.574545 
L 310.957351 150.967273 
L 310.195416 155.36 
L 309.060119 159.752727 
L 307.551447 164.145455 
L 305.627811 168.538182 
L 303.233006 172.930909 
L 301.567273 175.537066 
L 299.370909 178.552045 
L 296.727092 181.716364 
L 294.645239 183.912727 
L 292.320604 186.109091 
L 289.708089 188.305455 
L 286.192727 190.886049 
L 283.328047 192.698182 
L 279.268503 194.894545 
L 275.210909 196.688121 
L 273.014545 197.508102 
L 268.621818 198.852276 
L 264.229091 199.82358 
L 259.836364 200.440252 
L 255.443636 200.719021 
L 251.050909 200.659888 
L 246.658182 200.262853 
L 242.265455 199.527916 
L 242.265455 199.527916 
" style="fill:none;stroke:#e1e1e1;stroke-width:1.5;"/>
   </g>
   <g id="LineCollection_78"/>
   <g id="LineCollection_79"/>
   <g id="LineCollection_80">
    <path clip-path="url(#pe503837bf3)" d="M 178.570909 203.771467 
L 174.178182 202.855636 
L 169.40954 201.483636 
L 165.392727 199.985552 
L 163.196364 199.033905 
L 158.803636 196.79953 
L 154.410909 194.084379 
L 152.214545 192.535057 
L 149.629002 190.501818 
L 147.126087 188.305455 
L 144.8716 186.109091 
L 142.830304 183.912727 
L 140.973323 181.716364 
L 139.036364 179.172158 
L 136.356522 175.127273 
L 133.93049 170.734545 
L 131.941979 166.341818 
L 130.250909 161.637771 
L 129.129182 157.556364 
L 128.239311 153.163636 
L 127.686582 148.770909 
L 127.452511 144.378182 
L 127.530535 139.985455 
L 127.920653 135.592727 
L 128.643798 131.2 
L 129.695464 126.807273 
L 131.102069 122.414545 
L 132.882524 118.021818 
L 135.083268 113.629091 
L 136.84 110.654328 
L 139.287626 107.04 
L 141.232727 104.524425 
L 143.429091 101.980728 
L 145.625455 99.691401 
L 147.821818 97.620105 
L 150.018182 95.737108 
L 152.436759 93.861818 
L 156.607273 91.05541 
L 161 88.593528 
L 165.392727 86.574448 
L 169.785455 84.94897 
L 174.178182 83.704364 
L 178.570909 82.788533 
L 182.963636 82.21591 
L 187.356364 81.957053 
L 191.749091 82.011962 
L 196.141818 82.380637 
L 200.534545 83.069859 
L 204.927273 84.102964 
L 209.32 85.476266 
L 213.817643 87.272727 
L 218.242795 89.469091 
L 222.498182 92.031574 
L 225.126786 93.861818 
L 227.932619 96.058182 
L 231.283636 99.048964 
L 233.48 101.2698 
L 236.587684 104.843636 
L 238.277978 107.04 
L 240.069091 109.622037 
L 242.487835 113.629091 
L 244.688341 118.021818 
L 246.472621 122.414545 
L 247.215743 124.610909 
L 248.442762 129.003636 
L 249.325052 133.396364 
L 249.877101 137.789091 
L 250.113693 142.181818 
L 250.034829 146.574545 
L 249.640509 150.967273 
L 248.854545 155.713634 
L 247.870153 159.752727 
L 246.472621 164.145455 
L 244.688341 168.538182 
L 243.636839 170.734545 
L 242.265455 173.325635 
L 239.815913 177.323636 
L 237.872727 180.064705 
L 235.676364 182.822605 
L 232.696175 186.109091 
L 230.440751 188.305455 
L 226.890909 191.347024 
L 224.694545 193.014845 
L 221.931128 194.894545 
L 218.105455 197.166996 
L 213.712727 199.33509 
L 209.32 201.083734 
L 207.123636 201.818464 
L 202.730909 203.014262 
L 198.338182 203.877363 
L 193.945455 204.402922 
L 189.552727 204.614714 
L 185.16 204.51274 
L 180.767273 204.096999 
L 178.570909 203.771467 
L 178.570909 203.771467 
" style="fill:none;stroke:#f0f0f0;stroke-width:1.5;"/>
   </g>
   <g id="LineCollection_81"/>
   <g id="LineCollection_82"/>
   <g id="LineCollection_83">
    <path clip-path="url(#pe503837bf3)" d="M 244.461818 203.877363 
L 240.069091 203.014262 
L 235.676364 201.818464 
L 233.48 201.083734 
L 228.982357 199.287273 
L 224.557205 197.090909 
L 220.301818 194.528426 
L 217.673214 192.698182 
L 214.867381 190.501818 
L 211.516364 187.511036 
L 209.32 185.2902 
L 206.212316 181.716364 
L 204.522022 179.52 
L 202.730909 176.937963 
L 200.312165 172.930909 
L 198.111659 168.538182 
L 196.327379 164.145455 
L 195.584257 161.949091 
L 194.357238 157.556364 
L 193.474948 153.163636 
L 192.922899 148.770909 
L 192.686307 144.378182 
L 192.765171 139.985455 
L 193.159491 135.592727 
L 193.945455 130.846366 
L 194.929847 126.807273 
L 196.327379 122.414545 
L 198.111659 118.021818 
L 199.163161 115.825455 
L 200.534545 113.234365 
L 202.984087 109.236364 
L 204.927273 106.495295 
L 207.123636 103.737395 
L 210.103825 100.450909 
L 212.359249 98.254545 
L 215.909091 95.212976 
L 218.105455 93.545155 
L 220.868872 91.665455 
L 224.694545 89.393004 
L 229.087273 87.22491 
L 233.48 85.476266 
L 235.676364 84.741536 
L 240.069091 83.545738 
L 244.461818 82.682637 
L 248.854545 82.157078 
L 253.247273 81.945286 
L 257.64 82.04726 
L 262.032727 82.463001 
L 266.425455 83.204081 
L 270.818182 84.285994 
L 275.210909 85.717022 
L 279.603636 87.526095 
L 283.996364 89.76047 
L 288.389091 92.475621 
L 290.585455 94.024943 
L 293.170998 96.058182 
L 295.673913 98.254545 
L 297.9284 100.450909 
L 299.969696 102.647273 
L 301.826677 104.843636 
L 303.763636 107.387842 
L 306.443478 111.432727 
L 308.86951 115.825455 
L 310.858021 120.218182 
L 312.549091 124.922229 
L 313.670818 129.003636 
L 314.560689 133.396364 
L 315.113418 137.789091 
L 315.347489 142.181818 
L 315.269465 146.574545 
L 314.879347 150.967273 
L 314.156202 155.36 
L 313.104536 159.752727 
L 311.697931 164.145455 
L 309.917476 168.538182 
L 307.716732 172.930909 
L 305.96 175.905672 
L 303.512374 179.52 
L 301.567273 182.035575 
L 299.370909 184.579272 
L 297.174545 186.868599 
L 294.978182 188.939895 
L 292.781818 190.822892 
L 290.363241 192.698182 
L 286.192727 195.50459 
L 281.8 197.966472 
L 277.407273 199.985552 
L 273.014545 201.61103 
L 268.621818 202.855636 
L 264.229091 203.771467 
L 259.836364 204.34409 
L 255.443636 204.602947 
L 251.050909 204.548038 
L 246.658182 204.179363 
L 244.461818 203.877363 
L 244.461818 203.877363 
" style="fill:none;stroke:#f0f0f0;stroke-width:1.5;"/>
   </g>
   <g id="LineCollection_84"/>
   <g id="LineCollection_85"/>
   <g id="LineCollection_86">
    <path clip-path="url(#pe503837bf3)" d="M 182.963636 208.249077 
L 178.570909 207.70228 
L 174.178182 206.846456 
L 169.785455 205.680946 
L 165.392727 204.167024 
L 163.196364 203.278045 
L 158.803636 201.20983 
L 154.410909 198.712594 
L 151.918869 197.090909 
L 147.821818 194.035934 
L 145.625455 192.184907 
L 143.429091 190.15759 
L 141.232727 187.927543 
L 139.036364 185.462753 
L 136.088894 181.716364 
L 134.546809 179.52 
L 131.862801 175.127273 
L 129.619202 170.734545 
L 127.769077 166.341818 
L 126.286629 161.949091 
L 125.141726 157.556364 
L 124.31291 153.163636 
L 123.785481 148.770909 
L 123.562836 144.378182 
L 123.661818 139.591482 
L 124.011522 135.592727 
L 124.689645 131.2 
L 125.669155 126.807273 
L 126.988841 122.414545 
L 128.648433 118.021818 
L 130.686927 113.629091 
L 133.14952 109.236364 
L 134.643636 106.896752 
L 137.764204 102.647273 
L 139.590784 100.450909 
L 141.590091 98.254545 
L 143.787839 96.058182 
L 146.215118 93.861818 
L 150.018182 90.82729 
L 152.214545 89.266257 
L 156.607273 86.545499 
L 161 84.270319 
L 165.392727 82.392976 
L 169.785455 80.879054 
L 174.178182 79.713544 
L 178.570909 78.85772 
L 182.963636 78.310923 
L 187.356364 78.069323 
L 191.749091 78.120572 
L 196.317955 78.487273 
L 200.534545 79.122798 
L 204.927273 80.084654 
L 209.32 81.373236 
L 213.712727 83.001308 
L 218.233708 85.076364 
L 222.498182 87.438882 
L 226.890909 90.346836 
L 229.087273 91.994074 
L 231.362058 93.861818 
L 233.781144 96.058182 
L 235.978803 98.254545 
L 237.984107 100.450909 
L 240.069091 102.97566 
L 243.01308 107.04 
L 244.461818 109.293652 
L 246.883851 113.629091 
L 248.926213 118.021818 
L 250.582358 122.414545 
L 251.892817 126.807273 
L 252.882513 131.2 
L 253.556953 135.592727 
L 253.924853 139.985455 
L 253.998433 144.378182 
L 253.777693 148.770909 
L 253.247273 153.255335 
L 252.42573 157.556364 
L 251.283773 161.949091 
L 250.582358 164.145455 
L 248.854545 168.704511 
L 246.658182 173.36371 
L 244.427238 177.323636 
L 241.478885 181.716364 
L 239.810405 183.912727 
L 237.872727 186.236343 
L 235.676364 188.620136 
L 233.48 190.787221 
L 231.283636 192.765863 
L 228.663842 194.894545 
L 224.694545 197.728623 
L 222.21846 199.287273 
L 218.105455 201.549426 
L 213.410854 203.68 
L 209.32 205.186764 
L 204.927273 206.475346 
L 200.534545 207.437202 
L 196.141818 208.095332 
L 191.749091 208.439428 
L 187.356364 208.490677 
L 182.963636 208.249077 
L 182.963636 208.249077 
" style="fill:none;stroke:#ffffff;stroke-width:1.5;"/>
   </g>
   <g id="LineCollection_87"/>
   <g id="LineCollection_88"/>
   <g id="LineCollection_89">
    <path clip-path="url(#pe503837bf3)" d="M 246.658182 208.095332 
L 242.265455 207.437202 
L 237.872727 206.475346 
L 233.48 205.186764 
L 229.087273 203.558692 
L 224.566292 201.483636 
L 220.301818 199.121118 
L 215.909091 196.213164 
L 213.712727 194.565926 
L 211.437942 192.698182 
L 209.018856 190.501818 
L 206.821197 188.305455 
L 204.815893 186.109091 
L 202.730909 183.58434 
L 199.78692 179.52 
L 198.338182 177.266348 
L 195.916149 172.930909 
L 193.873787 168.538182 
L 192.217642 164.145455 
L 190.907183 159.752727 
L 189.917487 155.36 
L 189.243047 150.967273 
L 188.875147 146.574545 
L 188.801567 142.181818 
L 189.022307 137.789091 
L 189.552727 133.304665 
L 190.37427 129.003636 
L 191.516227 124.610909 
L 192.217642 122.414545 
L 193.945455 117.855489 
L 196.141818 113.19629 
L 198.372762 109.236364 
L 201.321115 104.843636 
L 202.989595 102.647273 
L 204.927273 100.323657 
L 207.123636 97.939864 
L 209.32 95.772779 
L 211.516364 93.794137 
L 214.136158 91.665455 
L 218.105455 88.831377 
L 220.58154 87.272727 
L 224.694545 85.010574 
L 229.389146 82.88 
L 233.48 81.373236 
L 237.872727 80.084654 
L 242.265455 79.122798 
L 246.658182 78.464668 
L 251.050909 78.120572 
L 255.443636 78.069323 
L 259.836364 78.310923 
L 264.229091 78.85772 
L 268.621818 79.713544 
L 273.014545 80.879054 
L 277.407273 82.392976 
L 279.603636 83.281955 
L 283.996364 85.35017 
L 288.389091 87.847406 
L 290.881131 89.469091 
L 294.978182 92.524066 
L 297.174545 94.375093 
L 299.370909 96.40241 
L 301.567273 98.632457 
L 303.763636 101.097247 
L 306.711106 104.843636 
L 308.253191 107.04 
L 310.937199 111.432727 
L 313.180798 115.825455 
L 315.030923 120.218182 
L 316.513371 124.610909 
L 317.658274 129.003636 
L 318.48709 133.396364 
L 319.014519 137.789091 
L 319.237164 142.181818 
L 319.138182 146.968518 
L 318.788478 150.967273 
L 318.110355 155.36 
L 317.130845 159.752727 
L 315.811159 164.145455 
L 314.151567 168.538182 
L 312.113073 172.930909 
L 309.65048 177.323636 
L 308.156364 179.663248 
L 305.035796 183.912727 
L 303.209216 186.109091 
L 301.209909 188.305455 
L 299.012161 190.501818 
L 296.584882 192.698182 
L 292.781818 195.73271 
L 290.585455 197.293743 
L 286.192727 200.014501 
L 281.8 202.289681 
L 277.407273 204.167024 
L 273.014545 205.680946 
L 268.621818 206.846456 
L 264.229091 207.70228 
L 259.836364 208.249077 
L 255.443636 208.490677 
L 251.050909 208.439428 
L 246.658182 208.095332 
L 246.658182 208.095332 
" style="fill:none;stroke:#ffffff;stroke-width:1.5;"/>
   </g>
   <g id="LineCollection_90"/>
   <g id="line2d_1">
    <path clip-path="url(#pe503837bf3)" d="M 188.784 143.28 
L 254.016 143.28 
" style="fill:none;stroke:#000000;stroke-linecap:square;stroke-width:3;"/>
   </g>
  </g>
 </g>
 <defs>
  <clipPath id="pe503837bf3">
   <rect height="217.44" width="217.44" x="112.68" y="34.56"/>
  </clipPath>
 </defs>
</svg>
